<svg width="160" height="160" viewBox="0 0 160 160" fill="none" xmlns="http://www.w3.org/2000/svg">
<path d="M80 157.333C122.71 157.333 157.333 122.71 157.333 80C157.333 37.29 122.71 2.66675 80 2.66675C37.29 2.66675 2.66669 37.29 2.66669 80C2.66669 122.71 37.29 157.333 80 157.333Z" fill="#A45BAD"/>
<path d="M80 125.333C105.037 125.333 125.333 105.037 125.333 80.0001C125.333 54.9632 105.037 34.6668 80 34.6668C54.9631 34.6668 34.6667 54.9632 34.6667 80.0001C34.6667 105.037 54.9631 125.333 80 125.333Z" fill="#A961B2"/>
<path d="M80 2.66675C37.29 2.66675 2.66669 37.2901 2.66669 80C2.66669 122.71 37.29 157.333 80 157.333C122.71 157.333 157.333 122.71 157.333 80C157.333 37.2901 122.71 2.66675 80 2.66675ZM80 130.667C69.9791 130.667 60.1832 127.695 51.8511 122.128C43.519 116.56 37.0249 108.647 33.1901 99.3893C29.3553 90.1312 28.3519 79.9438 30.3069 70.1155C32.2619 60.2871 37.0874 51.2592 44.1733 44.1733C51.2591 37.0875 60.287 32.2619 70.1154 30.3069C79.9438 28.352 90.1311 29.3553 99.3893 33.1902C108.647 37.025 116.56 43.5191 122.128 51.8512C127.695 60.1832 130.667 69.9791 130.667 80C130.667 93.4377 125.329 106.325 115.827 115.827C106.325 125.329 93.4376 130.667 80 130.667V130.667Z" fill="#5F4BBC"/>
<path d="M77.3333 64.0002L76.5446 61.6335C75.9599 59.8794 75.7835 58.0149 76.0289 56.1823C76.2743 54.3497 76.935 52.5973 77.9606 51.0588C79.2902 49.0643 79.9998 46.7209 80 44.3238V40.0002L83.875 47.7498C84.3276 48.6555 84.5633 49.654 84.5633 50.6665C84.5633 51.679 84.3276 52.6775 83.875 53.5832C83.4919 54.3492 83.2635 55.1833 83.2027 56.0376C83.142 56.892 83.2501 57.7499 83.521 58.5625L85.3333 64.0002H77.3333Z" fill="#BC70C4"/>
<path d="M82.6666 96.0001L83.4553 98.3668C84.04 100.121 84.2164 101.985 83.971 103.818C83.7256 105.651 83.0649 107.403 82.0393 108.941C80.7097 110.936 80.0001 113.279 79.9999 115.676V120L76.125 112.25C75.6723 111.345 75.4366 110.346 75.4366 109.334C75.4366 108.321 75.6723 107.323 76.125 106.417C76.508 105.651 76.7365 104.817 76.7972 103.963C76.8579 103.108 76.7498 102.25 76.479 101.438L74.6666 96.0001H82.6666Z" fill="#BC70C4"/>
<path d="M70.572 93.2001L69.4563 95.4311C68.6295 97.0849 67.4358 98.528 65.9664 99.6503C64.497 100.773 62.7907 101.544 60.9777 101.907C58.627 102.377 56.4682 103.533 54.773 105.228L51.7157 108.285L54.4557 100.065C54.7759 99.1045 55.3153 98.2317 56.0313 97.5157C56.7473 96.7997 57.6201 96.2603 58.5807 95.9401C59.3932 95.6693 60.1445 95.241 60.7916 94.6798C61.4387 94.1187 61.9689 93.4355 62.352 92.6694L64.915 87.5431L70.572 93.2001Z" fill="#BC70C4"/>
<path d="M89.428 66.8001L90.5437 64.5691C91.3705 62.9154 92.5642 61.4723 94.0336 60.3499C95.503 59.2276 97.2093 58.4557 99.0223 58.0931C101.373 57.6229 103.532 56.4675 105.227 54.7725L108.284 51.7151L105.544 59.9351C105.224 60.8957 104.685 61.7686 103.969 62.4845C103.253 63.2005 102.38 63.7399 101.419 64.0601C100.607 64.331 99.8555 64.7592 99.2084 65.3204C98.5613 65.8816 98.0311 66.5647 97.648 67.3308L95.085 72.4571L89.428 66.8001Z" fill="#BC70C4"/>
<path d="M93.2 89.4281L95.431 90.5438C97.0848 91.3706 98.5278 92.5643 99.6502 94.0337C100.772 95.5031 101.544 97.2094 101.907 99.0224C102.377 101.373 103.533 103.532 105.228 105.227L108.285 108.284L100.065 105.544C99.1044 105.224 98.2316 104.685 97.5156 103.969C96.7996 103.253 96.2602 102.38 95.94 101.419C95.6691 100.607 95.2409 99.8556 94.6797 99.2085C94.1185 98.5614 93.4354 98.0312 92.6693 97.6481L87.543 95.0851L93.2 89.4281Z" fill="#BC70C4"/>
<path d="M66.8 70.5721L64.569 69.4564C62.9152 68.6296 61.4721 67.4359 60.3498 65.9665C59.2274 64.4971 58.4556 62.7908 58.093 60.9778C57.6227 58.6271 56.4673 56.4682 54.7723 54.7731L51.715 51.7158L59.935 54.4558C60.8955 54.776 61.7684 55.3154 62.4843 56.0314C63.2003 56.7473 63.7398 57.6202 64.06 58.5808C64.3308 59.3933 64.759 60.1446 65.3202 60.7917C65.8814 61.4388 66.5645 61.969 67.3306 62.3521L72.457 64.9151L66.8 70.5721Z" fill="#BC70C4"/>
<path d="M64 82.6667L61.6333 83.4554C59.8792 84.0402 58.0148 84.2166 56.1821 83.9712C54.3495 83.7258 52.5971 83.0651 51.0587 82.0394C49.0641 80.7098 46.7207 80.0002 44.3237 80.0001H40L47.7497 76.1251C48.6553 75.6724 49.6539 75.4368 50.6663 75.4368C51.6788 75.4368 52.6774 75.6724 53.583 76.1251C54.3491 76.5082 55.1831 76.7366 56.0375 76.7973C56.8918 76.8581 57.7498 76.7499 58.5623 76.4791L64 74.6667V82.6667Z" fill="#BC70C4"/>
<path d="M96 77.3334L98.3667 76.5448C100.121 75.96 101.985 75.7836 103.818 76.029C105.65 76.2744 107.403 76.9351 108.941 77.9608C110.936 79.2904 113.279 79.9999 115.676 80.0001H120L112.25 83.8751C111.345 84.3278 110.346 84.5634 109.334 84.5634C108.321 84.5634 107.323 84.3278 106.417 83.8751C105.651 83.492 104.817 83.2636 103.963 83.2028C103.108 83.1421 102.25 83.2502 101.438 83.5211L96 85.3334V77.3334Z" fill="#BC70C4"/>
<path d="M80 98.6667C90.3093 98.6667 98.6666 90.3094 98.6666 80.0001C98.6666 69.6908 90.3093 61.3334 80 61.3334C69.6907 61.3334 61.3333 69.6908 61.3333 80.0001C61.3333 90.3094 69.6907 98.6667 80 98.6667Z" fill="#CB84D3"/>
<path d="M91.8683 21.3335C91.9206 21.8382 92.1158 22.3176 92.431 22.7153C92.7462 23.113 93.1684 23.4125 93.6479 23.5786C94.1274 23.7447 94.6443 23.7706 95.138 23.6531C95.6317 23.5356 96.0816 23.2797 96.435 22.9155L100.802 18.4188C101.116 18.0952 101.344 17.697 101.463 17.2615C101.582 16.8259 101.588 16.3674 101.481 15.9287C101.374 15.4901 101.158 15.0857 100.852 14.7535C100.547 14.4213 100.162 14.1722 99.7333 14.0295L94.723 12.3591C94.2997 12.2178 93.8477 12.185 93.4085 12.2636C92.9692 12.3422 92.5567 12.5298 92.2088 12.8092C91.8609 13.0886 91.5886 13.4508 91.4169 13.8627C91.2453 14.2746 91.1797 14.723 91.2263 15.1668L91.8683 21.3335Z" fill="#362684"/>
<path d="M124.556 40.3335C127.501 40.3335 129.889 37.9457 129.889 35.0001C129.889 32.0546 127.501 29.6668 124.556 29.6668C121.61 29.6668 119.222 32.0546 119.222 35.0001C119.222 37.9457 121.61 40.3335 124.556 40.3335Z" fill="#362684"/>
<path d="M144 58.6667H138.667C137.194 58.6667 136 59.8607 136 61.3334V66.6667C136 68.1395 137.194 69.3334 138.667 69.3334H144C145.473 69.3334 146.667 68.1395 146.667 66.6667V61.3334C146.667 59.8607 145.473 58.6667 144 58.6667Z" fill="#362684"/>
<path d="M142.167 101.833C145.516 101.833 148.232 99.4456 148.232 96.5001C148.232 93.5546 145.516 91.1667 142.167 91.1667C138.817 91.1667 136.102 93.5546 136.102 96.5001C136.102 99.4456 138.817 101.833 142.167 101.833Z" fill="#362684"/>
<path d="M125.444 131.065C128.39 131.065 130.778 128.35 130.778 125C130.778 121.65 128.39 118.935 125.444 118.935C122.499 118.935 120.111 121.65 120.111 125C120.111 128.35 122.499 131.065 125.444 131.065Z" fill="#362684"/>
<path d="M95.4446 135.777C93.8243 135.779 92.2709 136.424 91.1252 137.569C89.9795 138.715 89.335 140.269 89.3333 141.889V145.777C89.3333 146.485 89.6142 147.163 90.1143 147.663C90.6144 148.163 91.2927 148.444 91.9999 148.444H98.8886C99.5959 148.444 100.274 148.163 100.774 147.663C101.274 147.163 101.555 146.485 101.555 145.777V141.889C101.554 140.269 100.909 138.715 99.7636 137.57C98.618 136.424 97.0648 135.779 95.4446 135.777V135.777ZM96.2223 143.111H94.6666V141.889C94.6666 141.683 94.7485 141.485 94.8944 141.339C95.0402 141.193 95.238 141.111 95.4443 141.111C95.6505 141.111 95.8483 141.193 95.9942 141.339C96.14 141.485 96.2219 141.683 96.2219 141.889L96.2223 143.111Z" fill="#362684"/>
<path d="M68.8333 140C68.836 139.236 68.6711 138.481 68.3503 137.788C68.0295 137.095 67.5605 136.481 66.9765 135.988C66.3925 135.496 65.7076 135.138 64.9702 134.939C64.2327 134.741 63.4607 134.706 62.7084 134.838C61.9561 134.97 61.242 135.265 60.6162 135.703C59.9905 136.141 59.4685 136.711 59.087 137.373C58.7054 138.035 58.4737 138.772 58.408 139.533C58.3424 140.294 58.4444 141.06 58.707 141.777H56.9447V147.11H70.278V141.777H68.5153C68.7244 141.208 68.832 140.606 68.8333 140V140Z" fill="#362684"/>
<path d="M34.2223 118.444C32.6021 118.446 31.0487 119.091 29.903 120.236C28.7573 121.382 28.1128 122.935 28.111 124.556V128.444C28.111 129.152 28.3919 129.83 28.892 130.33C29.3921 130.83 30.0704 131.111 30.7777 131.111H37.6666C38.3739 131.111 39.0522 130.83 39.5523 130.33C40.0524 129.83 40.3333 129.152 40.3333 128.444V124.556C40.3315 122.936 39.687 121.382 38.5414 120.237C37.3958 119.091 35.8425 118.446 34.2223 118.444ZM35 125.778H33.4443V124.556C33.4422 124.452 33.4607 124.349 33.4988 124.253C33.537 124.157 33.5939 124.069 33.6664 123.995C33.7388 123.921 33.8253 123.863 33.9207 123.822C34.0161 123.782 34.1186 123.762 34.2221 123.762C34.3257 123.762 34.4282 123.782 34.5236 123.822C34.619 123.863 34.7055 123.921 34.7779 123.995C34.8504 124.069 34.9073 124.157 34.9455 124.253C34.9836 124.349 35.0021 124.452 35 124.556V125.778Z" fill="#362684"/>
<path d="M14 69.8891H20.889C21.5963 69.8891 22.2745 69.6082 22.7746 69.1081C23.2747 68.608 23.5557 67.9297 23.5557 67.2225V63.3335C23.5438 61.7205 22.8947 60.1777 21.7499 59.0413C20.6051 57.905 19.0575 57.2673 17.4445 57.2673C15.8315 57.2673 14.2839 57.905 13.1391 59.0413C11.9944 60.1777 11.3453 61.7205 11.3333 63.3335V67.2225C11.3333 67.9297 11.6143 68.608 12.1144 69.1081C12.6145 69.6082 13.2928 69.8891 14 69.8891ZM16.6667 63.3335C16.6709 63.13 16.7547 62.9362 16.9001 62.7938C17.0455 62.6513 17.241 62.5716 17.4445 62.5716C17.6481 62.5716 17.8435 62.6513 17.9889 62.7938C18.1343 62.9362 18.2181 63.13 18.2223 63.3335V64.5558H16.6667V63.3335Z" fill="#362684"/>
<path d="M21.3333 88.0001H16V93.3334H16.0586L11.7416 99.1968L16.0363 102.359L20.7183 96.0001H24V90.6668C24 89.9595 23.719 89.2813 23.2189 88.7812C22.7188 88.2811 22.0406 88.0001 21.3333 88.0001Z" fill="#362684"/>
<path d="M38.4443 30.6668H30.4443C28.9716 30.6668 27.7776 31.8607 27.7776 33.3335V36.0001C27.7776 37.4729 28.9716 38.6668 30.4443 38.6668H38.4443C39.9171 38.6668 41.111 37.4729 41.111 36.0001V33.3335C41.111 31.8607 39.9171 30.6668 38.4443 30.6668Z" fill="#362684"/>
<path d="M58.146 21.4805L58.084 21.6071C57.8853 22.0137 57.7934 22.4641 57.8168 22.916C57.8403 23.3679 57.9783 23.8063 58.218 24.1901C58.4576 24.574 58.791 24.8905 59.1867 25.1099C59.5824 25.3293 60.0275 25.4445 60.48 25.4445H65.7776C66.2266 25.4445 66.6684 25.3312 67.062 25.1151C67.4555 24.8989 67.7881 24.5868 68.0289 24.2078C68.2697 23.8289 68.4109 23.3952 68.4394 22.9471C68.4679 22.499 68.3828 22.0509 68.192 21.6445L68.078 21.4008C67.716 20.6344 67.5316 19.7963 67.5385 18.9487C67.5454 18.1012 67.7435 17.2662 68.118 16.5058L68.1733 16.3928C68.3722 15.9862 68.4644 15.5357 68.4411 15.0837C68.4178 14.6316 68.2799 14.193 68.0402 13.809C67.8006 13.425 67.4671 13.1083 67.0713 12.8888C66.6755 12.6692 66.2303 12.5541 65.7776 12.5541H60.48C60.0239 12.5542 59.5754 12.6712 59.1774 12.894C58.7795 13.1168 58.4453 13.438 58.2069 13.8268C57.9685 14.2156 57.8337 14.659 57.8156 15.1148C57.7975 15.5705 57.8965 16.0233 58.1033 16.4298C58.4987 17.2116 58.7083 18.0741 58.7157 18.9501C58.7231 19.8262 58.5281 20.6921 58.146 21.4805V21.4805Z" fill="#362684"/>
<path d="M74.6666 85.3334H85.3333V90.6667H74.6666V85.3334Z" fill="#9D52A5"/>
<path d="M80 82.6668H74.6667V76.0175C74.3216 75.8655 73.9473 75.7916 73.5704 75.801C73.1935 75.8104 72.8234 75.9029 72.4863 76.0718L70.526 77.0518L68.1407 72.2818L70.1 71.3001C71.5825 70.5573 73.2614 70.3004 74.8982 70.5661C76.535 70.8317 78.0465 71.6063 79.218 72.7798C79.466 73.0275 79.6626 73.3217 79.7968 73.6455C79.931 73.9692 80 74.3163 80 74.6668V82.6668Z" fill="#9D52A5"/>
<path d="M85.3333 72.0001H90.6666V77.3334H85.3333V72.0001Z" fill="#9D52A5"/>
<path d="M136.568 23.4315C123.826 10.6929 107.158 2.62703 89.2612 0.539215C71.3648 -1.5486 53.2875 2.46384 37.955 11.9271L37.6883 12.0835L51.067 35.2168C44.729 39.3278 39.3286 44.7285 35.218 51.0668L16.711 40.3811C21.9175 32.0969 28.6863 24.905 36.64 19.2065L33.54 14.8668C23.1602 22.2617 14.6998 32.0323 8.86522 43.3629C3.03059 54.6936 -0.00905664 67.2555 2.02693e-05 80.0001C3.70785e-05 95.8226 4.69195 111.29 13.4824 124.446C22.2729 137.602 34.7672 147.855 49.3852 153.91C64.0033 159.965 80.0885 161.55 95.607 158.463C111.125 155.376 125.38 147.757 136.568 136.569C143.997 129.14 149.89 120.321 153.91 110.615C157.931 100.909 160 90.5059 160 80.0001C160 69.4943 157.931 59.0914 153.91 49.3854C149.89 39.6793 143.997 30.8602 136.568 23.4315ZM133.267 82.6668H154.615C154.242 93.9671 151.29 105.033 145.985 115.017L127.458 104.32C130.917 97.5999 132.898 90.2165 133.267 82.6668V82.6668ZM133.267 77.3334C132.898 69.7837 130.917 62.4003 127.458 55.6798L145.985 44.9828C151.29 54.9676 154.242 66.0331 154.615 77.3334H133.267ZM143.31 40.3691L124.782 51.0668C120.671 44.7291 115.271 39.3288 108.933 35.2181L119.63 16.6905C129.193 22.7149 137.285 30.8061 143.309 40.3691H143.31ZM82.6666 5.38548C93.967 5.75865 105.032 8.7104 115.017 14.0151L104.321 32.5425C97.6 29.0828 90.2165 27.1021 82.6666 26.7335V5.38548ZM44.9937 14.0335C54.9776 8.73354 66.0367 5.77475 77.3333 5.38115V26.7335C69.7834 27.1021 62.4 29.0828 55.6793 32.5425L44.9937 14.0335ZM80 32.0001C106.467 32.0001 128 53.5335 128 80.0001C128 106.467 106.467 128 80 128C53.5333 128 32 106.467 32 80.0001C32 53.5335 53.5333 32.0001 80 32.0001ZM77.3333 133.267V154.615C66.033 154.242 54.9675 151.29 44.9827 145.985L55.6793 127.458C62.4 130.917 69.7834 132.898 77.3333 133.267V133.267ZM82.6666 133.267C90.2165 132.898 97.6 130.917 104.321 127.458L115.017 145.985C105.032 151.29 93.967 154.242 82.6666 154.615V133.267ZM26.7333 82.6668C27.102 90.2165 29.0827 97.5999 32.5423 104.32L14.015 115.017C8.71017 105.033 5.75841 93.9671 5.38535 82.6668H26.7333ZM13.8773 45.2835C13.9283 45.1861 13.9833 45.0911 14.0347 44.9945L32.5423 55.6798C29.0827 62.4003 27.102 69.7837 26.7333 77.3334H5.38635C5.78321 66.1494 8.68483 55.197 13.8773 45.2835V45.2835ZM16.6903 119.631L35.218 108.933C39.3287 115.271 44.7289 120.671 51.0667 124.782L40.3697 143.31C30.8066 137.285 22.7154 129.194 16.691 119.631H16.6903ZM132.797 132.798C128.816 136.783 124.399 140.31 119.631 143.31L108.933 124.782C115.271 120.671 120.671 115.271 124.782 108.933L143.31 119.63C140.309 124.399 136.783 128.816 132.797 132.797V132.798Z" fill="black"/>
<path d="M37.4047 80.6124C37.5426 81.1971 37.874 81.7181 38.345 82.091C38.8161 82.4638 39.3992 82.6667 40 82.6667H44.3233C45.2511 82.6661 46.1739 82.8022 47.062 83.0707C47.9553 83.3417 48.8041 83.7422 49.5813 84.2594C51.7311 85.6987 54.2216 86.5474 56.803 86.7204L42.0226 92.843L44.0636 97.7704L60.154 91.1037L59.9676 91.477C59.7411 91.9306 59.4272 92.3348 59.0439 92.6666C58.6607 92.9984 58.2156 93.2512 57.7343 93.4104C56.3833 93.8643 55.1558 94.6251 54.1481 95.6331C53.1405 96.6411 52.3801 97.8688 51.9266 99.22L49.187 107.44C48.9969 108.01 49.0048 108.627 49.2095 109.192C49.4142 109.757 49.8036 110.236 50.3147 110.552C50.8258 110.868 51.4286 111.002 52.0253 110.933C52.6221 110.863 53.1779 110.594 53.6026 110.169L56.6593 107.112C57.3176 106.454 58.0696 105.896 58.891 105.456C59.7096 105.017 60.5891 104.702 61.5006 104.521C64.0432 104.017 66.4081 102.852 68.3576 101.144L62.2296 115.936L67.157 117.977L73.8206 101.891L73.9503 102.28C74.2712 103.25 74.1965 104.307 73.7423 105.222C73.1066 106.499 72.7757 107.906 72.7757 109.332C72.7757 110.759 73.1066 112.166 73.7423 113.442L77.6156 121.192C77.8845 121.729 78.3267 122.16 78.8706 122.414C79.4145 122.668 80.0283 122.731 80.6126 122.594C81.197 122.456 81.7177 122.124 82.0904 121.654C82.4632 121.183 82.6662 120.6 82.6666 120V115.677C82.6661 114.749 82.8022 113.826 83.0706 112.938C83.3417 112.045 83.7421 111.196 84.259 110.419C85.699 108.267 86.5471 105.774 86.718 103.191L92.843 117.977L97.7703 115.936L91.1036 99.8457L91.4763 100.032C91.9298 100.258 92.3341 100.572 92.6659 100.955C92.9976 101.339 93.2504 101.784 93.4096 102.265C93.8633 103.616 94.624 104.844 95.632 105.852C96.64 106.86 97.8679 107.621 99.2193 108.074L107.439 110.814C108.009 111.004 108.626 110.996 109.191 110.792C109.756 110.587 110.235 110.198 110.551 109.687C110.867 109.175 111.001 108.573 110.932 107.976C110.862 107.379 110.593 106.824 110.168 106.399L107.112 103.342C106.452 102.683 105.894 101.931 105.455 101.109C105.016 100.29 104.701 99.411 104.52 98.4997C104.016 95.9573 102.851 93.5925 101.143 91.643L115.936 97.7707L117.977 92.8434L101.89 86.1797L102.279 86.0504C103.249 85.734 104.305 85.8085 105.222 86.258C106.498 86.8937 107.905 87.2246 109.331 87.2246C110.758 87.2246 112.165 86.8937 113.441 86.258L121.191 82.3847C121.728 82.116 122.159 81.6739 122.413 81.13C122.668 80.5862 122.731 79.9723 122.593 79.3879C122.455 78.8035 122.124 78.2827 121.654 77.9099C121.183 77.537 120.6 77.3339 120 77.3334H115.677C114.749 77.334 113.826 77.1979 112.938 76.9294C112.045 76.6584 111.196 76.2579 110.419 75.7407C108.267 74.3013 105.775 73.4531 103.193 73.2814L117.977 67.1571L115.936 62.2297L99.846 68.8964L100.032 68.5231C100.259 68.0696 100.573 67.6653 100.956 67.3335C101.339 67.0017 101.784 66.7489 102.266 66.5897C103.617 66.1358 104.844 65.375 105.852 64.367C106.859 63.359 107.62 62.1313 108.073 60.7801L110.813 52.5601C111.003 51.9901 110.995 51.3727 110.79 50.8078C110.586 50.243 110.196 49.7638 109.685 49.4479C109.174 49.132 108.571 48.998 107.975 49.0676C107.378 49.1371 106.822 49.4062 106.397 49.8311L103.341 52.8877C102.682 53.5466 101.93 54.1046 101.109 54.5437C100.29 54.9833 99.4108 55.2984 98.4993 55.4787C95.9567 55.9831 93.5918 57.148 91.6423 58.8564L97.7703 44.0637L92.843 42.0228L86.1793 58.1091L86.0496 57.7201C85.7287 56.7502 85.8034 55.6928 86.2576 54.7777C86.8934 53.5009 87.2243 52.0941 87.2243 50.6677C87.2243 49.2414 86.8934 47.8346 86.2576 46.5577L82.3843 38.8078C82.1154 38.2709 81.6733 37.8405 81.1294 37.5862C80.5855 37.332 79.9717 37.2687 79.3873 37.4066C78.803 37.5445 78.2823 37.8756 77.9095 38.3463C77.5367 38.817 77.3337 39.3997 77.3333 40.0001V44.3234C77.3339 45.2513 77.1977 46.1742 76.9293 47.0624C76.6582 47.9556 76.2579 48.8042 75.741 49.5814C74.3009 51.7329 73.4528 54.2257 73.282 56.8091L67.157 42.0228L62.2296 44.0637L68.8963 60.1544L68.5236 59.9684C68.0701 59.7419 67.6659 59.428 67.3341 59.0447C67.0023 58.6614 66.7495 58.2164 66.5903 57.7351C66.1366 56.3837 65.3759 55.1559 64.3679 54.148C63.3599 53.1402 62.132 52.3796 60.7806 51.9261L52.561 49.1861C51.9911 48.996 51.3737 49.0039 50.8088 49.2086C50.244 49.4132 49.7648 49.8026 49.4489 50.3136C49.133 50.8246 48.999 51.4273 49.0684 52.0241C49.1379 52.6208 49.4068 53.1766 49.8316 53.6014L52.8883 56.6581C53.5474 57.3169 54.1056 58.0694 54.5446 58.8914C54.9841 59.7098 55.2992 60.5892 55.4796 61.5004C55.9838 64.0428 57.1486 66.4076 58.8566 68.3571L44.0643 62.2294L42.0233 67.1567L58.1096 73.8204L57.7213 73.9497C56.7507 74.2661 55.6949 74.1916 54.7783 73.7421C53.5016 73.1063 52.0947 72.7754 50.6685 72.7754C49.2422 72.7754 47.8354 73.1063 46.5586 73.7421L38.8087 77.6154C38.2713 77.8838 37.8403 78.3258 37.5855 78.8697C37.3306 79.4137 37.2669 80.0277 37.4047 80.6124V80.6124ZM96 80.0001C96 83.1646 95.0616 86.258 93.3035 88.8892C91.5454 91.5204 89.0465 93.5711 86.1229 94.7821C83.1993 95.9931 79.9822 96.31 76.8785 95.6926C73.7748 95.0752 70.9239 93.5514 68.6863 91.3138C66.4486 89.0761 64.9248 86.2252 64.3074 83.1215C63.69 80.0178 64.0069 76.8007 65.2179 73.8771C66.4289 70.9535 68.4797 68.4547 71.1108 66.6966C73.742 64.9385 76.8355 64.0001 80 64.0001C84.242 64.0048 88.3089 65.6921 91.3084 68.6916C94.308 71.6912 95.9952 75.7581 96 80.0001ZM60.458 99.291C59.3465 99.5113 58.2643 99.8596 57.233 100.329C57.6979 99.4516 58.482 98.7861 59.4233 98.47C61.4953 97.7835 63.2526 96.3772 64.3766 94.506C64.8655 95.0332 65.3812 95.5346 65.9236 96.0104C64.5386 97.7062 62.6059 98.8663 60.458 99.291V99.291ZM79.8213 107.461C79.1934 108.403 78.6754 109.415 78.2776 110.475C77.9839 109.525 78.0675 108.498 78.511 107.608C79.4832 105.659 79.7331 103.428 79.2163 101.312C79.4766 101.322 79.7366 101.332 79.9993 101.332C80.4576 101.332 80.911 101.313 81.362 101.284C81.5698 103.459 81.026 105.639 79.8213 107.461V107.461ZM98.4696 100.576C97.7833 98.5044 96.3769 96.7471 94.5056 95.6234C95.0327 95.1332 95.5349 94.6169 96.0103 94.0764C97.7063 95.4616 98.8664 97.3948 99.291 99.543C99.5111 100.655 99.8593 101.737 100.329 102.768C99.451 102.303 98.7855 101.518 98.4696 100.576ZM110.475 81.7224C109.525 82.0158 108.499 81.9323 107.609 81.4891C105.656 80.5275 103.429 80.2792 101.313 80.7871C101.322 80.5257 101.333 80.2644 101.333 80.0007C101.333 79.5424 101.313 79.0891 101.284 78.6381C103.459 78.4305 105.638 78.9745 107.46 80.1794C108.403 80.8072 109.415 81.3249 110.475 81.7224V81.7224ZM99.542 60.7091C100.653 60.4888 101.736 60.1405 102.767 59.6711C102.302 60.5485 101.518 61.214 100.577 61.5301C98.5046 62.2166 96.7473 63.623 95.6233 65.4941C95.1333 64.9672 94.6176 64.4657 94.0763 63.9897C95.4613 62.2939 97.394 61.1338 99.542 60.7091V60.7091ZM80.1786 52.5394C80.8066 51.5969 81.3245 50.5855 81.7223 49.5251C82.016 50.4751 81.9325 51.5017 81.489 52.3917C80.5167 54.341 80.2668 56.5717 80.7836 58.6877C80.5233 58.6781 80.2633 58.6677 80.0006 58.6677C79.5423 58.6677 79.089 58.6874 78.638 58.7157C78.4302 56.5414 78.9739 54.3614 80.1786 52.5394V52.5394ZM61.5303 59.4237C62.2167 61.4957 63.6231 63.253 65.4943 64.3767C64.9672 64.8669 64.465 65.3832 63.9896 65.9237C62.2936 64.5385 61.1335 62.6054 60.709 60.4571C60.4888 59.3456 60.1406 58.2634 59.6713 57.2321C60.549 57.6974 61.2144 58.4819 61.5303 59.4237V59.4237ZM52.3906 78.5117C54.3434 79.4724 56.5706 79.7201 58.6866 79.2117C58.677 79.4734 58.6666 79.7347 58.6666 79.9984C58.6666 80.4564 58.6863 80.9101 58.715 81.3611C56.5406 81.5684 54.3609 81.0244 52.539 79.8197C51.5965 79.1917 50.5851 78.6738 49.5247 78.2761C50.4748 77.9836 51.501 78.068 52.3906 78.5117V78.5117Z" fill="black"/>
<path d="M74.6666 85.3334H85.3333V90.6667H74.6666V85.3334Z" fill="black"/>
<path d="M74.6666 82.6667H80V74.6667C80 74.3165 79.931 73.9698 79.797 73.6462C79.663 73.3227 79.4666 73.0287 79.219 72.7811C78.0475 71.6071 76.5359 70.8321 74.8989 70.5663C73.2619 70.3004 71.5827 70.5572 70.1 71.3001L68.1396 72.2804L70.525 77.0504L72.4853 76.0704C72.8223 75.9015 73.1925 75.809 73.5694 75.7996C73.9463 75.7902 74.3206 75.8641 74.6656 76.0161L74.6666 82.6667Z" fill="black"/>
<path d="M85.3333 72.0001H90.6666V77.3334H85.3333V72.0001Z" fill="black"/>
<path d="M101.48 15.9278C101.373 15.4894 101.156 15.0853 100.851 14.7533C100.545 14.4213 100.16 14.1722 99.7323 14.0295L94.722 12.3592C94.2987 12.218 93.8469 12.1854 93.4078 12.2641C92.9687 12.3428 92.5564 12.5305 92.2085 12.8098C91.8607 13.0892 91.5886 13.4513 91.417 13.8631C91.2454 14.2749 91.1798 14.7231 91.2263 15.1668L91.8683 21.3335C91.9206 21.8383 92.1158 22.3176 92.431 22.7153C92.7462 23.113 93.1684 23.4125 93.6479 23.5786C94.1274 23.7447 94.6443 23.7706 95.138 23.6531C95.6317 23.5356 96.0816 23.2797 96.435 22.9155L100.802 18.4188C101.116 18.095 101.344 17.6965 101.462 17.2608C101.581 16.8251 101.587 16.3665 101.48 15.9278Z" fill="black"/>
<path d="M124.556 40.3335C127.501 40.3335 129.889 37.9457 129.889 35.0001C129.889 32.0546 127.501 29.6668 124.556 29.6668C121.61 29.6668 119.222 32.0546 119.222 35.0001C119.222 37.9457 121.61 40.3335 124.556 40.3335Z" fill="black"/>
<path d="M144 58.6667H138.667C137.194 58.6667 136 59.8607 136 61.3334V66.6667C136 68.1395 137.194 69.3334 138.667 69.3334H144C145.473 69.3334 146.667 68.1395 146.667 66.6667V61.3334C146.667 59.8607 145.473 58.6667 144 58.6667Z" fill="black"/>
<path d="M142.167 101.833C145.516 101.833 148.232 99.4456 148.232 96.5001C148.232 93.5546 145.516 91.1667 142.167 91.1667C138.817 91.1667 136.102 93.5546 136.102 96.5001C136.102 99.4456 138.817 101.833 142.167 101.833Z" fill="black"/>
<path d="M125.444 131.065C128.39 131.065 130.778 128.35 130.778 125C130.778 121.65 128.39 118.935 125.444 118.935C122.499 118.935 120.111 121.65 120.111 125C120.111 128.35 122.499 131.065 125.444 131.065Z" fill="black"/>
<path d="M95.4447 135.777C93.8244 135.779 92.2709 136.424 91.1252 137.569C89.9795 138.715 89.3351 140.269 89.3333 141.889V145.777C89.3333 146.485 89.6143 147.163 90.1144 147.663C90.6145 148.163 91.2927 148.444 92 148.444H98.8886C99.5959 148.444 100.274 148.163 100.774 147.663C101.274 147.163 101.555 146.485 101.555 145.777V141.889C101.554 140.269 100.909 138.715 99.7636 137.57C98.6181 136.424 97.0648 135.779 95.4447 135.777V135.777ZM96.2223 143.111H94.6666V141.889C94.6666 141.683 94.7486 141.485 94.8944 141.339C95.0403 141.193 95.2381 141.111 95.4443 141.111C95.6506 141.111 95.8484 141.193 95.9942 141.339C96.14 141.485 96.222 141.683 96.222 141.889L96.2223 143.111Z" fill="black"/>
<path d="M56.945 147.11H70.2783V141.777H68.5156C68.8045 140.988 68.8986 140.141 68.79 139.307C68.6815 138.474 68.3734 137.679 67.892 136.991C67.4107 136.302 66.7702 135.739 66.025 135.351C65.2797 134.963 64.4518 134.76 63.6115 134.76C62.7711 134.76 61.9432 134.963 61.198 135.351C60.4528 135.739 59.8123 136.302 59.3309 136.991C58.8495 137.679 58.5415 138.474 58.4329 139.307C58.3243 140.141 58.4185 140.988 58.7073 141.777H56.945V147.11Z" fill="black"/>
<path d="M34.2223 118.444C32.6021 118.446 31.0487 119.091 29.903 120.236C28.7573 121.382 28.1129 122.935 28.111 124.556V128.444C28.111 129.152 28.392 129.83 28.8921 130.33C29.3922 130.83 30.0704 131.111 30.7777 131.111H37.6667C38.3739 131.111 39.0522 130.83 39.5523 130.33C40.0524 129.83 40.3333 129.152 40.3333 128.444V124.556C40.3315 122.935 39.6871 121.382 38.5414 120.236C37.3958 119.091 35.8425 118.446 34.2223 118.444ZM35 125.778H33.4443V124.556C33.4422 124.452 33.4607 124.349 33.4989 124.253C33.537 124.157 33.5939 124.069 33.6664 123.995C33.7388 123.921 33.8253 123.862 33.9207 123.822C34.0162 123.782 34.1187 123.762 34.2222 123.762C34.3257 123.762 34.4282 123.782 34.5236 123.822C34.6191 123.862 34.7055 123.921 34.778 123.995C34.8504 124.069 34.9074 124.157 34.9455 124.253C34.9836 124.349 35.0022 124.452 35 124.556V125.778Z" fill="black"/>
<path d="M14 69.8891H20.889C21.5963 69.8891 22.2745 69.6082 22.7746 69.1081C23.2747 68.608 23.5557 67.9297 23.5557 67.2225V63.3335C23.5438 61.7205 22.8947 60.1777 21.7499 59.0413C20.6051 57.905 19.0575 57.2673 17.4445 57.2673C15.8315 57.2673 14.2839 57.905 13.1391 59.0413C11.9944 60.1777 11.3453 61.7205 11.3333 63.3335V67.2225C11.3333 67.9297 11.6143 68.608 12.1144 69.1081C12.6145 69.6082 13.2928 69.8891 14 69.8891ZM16.6667 63.3335C16.6709 63.13 16.7547 62.9362 16.9001 62.7938C17.0455 62.6513 17.241 62.5716 17.4445 62.5716C17.6481 62.5716 17.8435 62.6513 17.9889 62.7938C18.1343 62.9362 18.2181 63.13 18.2223 63.3335V64.5558H16.6667V63.3335Z" fill="black"/>
<path d="M11.7416 99.1968L16.0363 102.359L20.7183 96.0001H24V90.6668C24 89.9595 23.719 89.2813 23.2189 88.7812C22.7188 88.2811 22.0406 88.0001 21.3333 88.0001H16V93.3334H16.0586L11.7416 99.1968Z" fill="black"/>
<path d="M38.4443 30.6668H30.4443C28.9716 30.6668 27.7777 31.8607 27.7777 33.3335V36.0001C27.7777 37.4729 28.9716 38.6668 30.4443 38.6668H38.4443C39.9171 38.6668 41.111 37.4729 41.111 36.0001V33.3335C41.111 31.8607 39.9171 30.6668 38.4443 30.6668Z" fill="black"/>
<path d="M68.078 21.4021C67.716 20.6358 67.5316 19.7976 67.5385 18.9501C67.5454 18.1025 67.7435 17.2675 68.118 16.5071L68.1733 16.3941C68.3723 15.9876 68.4644 15.537 68.4411 15.085C68.4179 14.633 68.2799 14.1943 68.0403 13.8103C67.8006 13.4263 67.4672 13.1096 67.0713 12.8901C66.6755 12.6706 66.2303 12.5554 65.7777 12.5555H60.48C60.0239 12.5555 59.5754 12.6725 59.1775 12.8953C58.7795 13.1181 58.4453 13.4393 58.2069 13.8281C57.9685 14.2169 57.8338 14.6604 57.8156 15.1161C57.7975 15.5719 57.8965 16.0246 58.1033 16.4311C58.4985 17.2127 58.708 18.075 58.7154 18.9508C58.7228 19.8266 58.528 20.6923 58.146 21.4805L58.084 21.6071C57.8854 22.0137 57.7934 22.4641 57.8169 22.916C57.8403 23.3679 57.9784 23.8063 58.218 24.1901C58.4577 24.574 58.791 24.8905 59.1867 25.1099C59.5825 25.3293 60.0275 25.4445 60.48 25.4445H65.7777C66.2267 25.4446 66.6684 25.3313 67.062 25.1151C67.4556 24.8989 67.7881 24.5868 68.0289 24.2079C68.2697 23.8289 68.4109 23.3952 68.4394 22.9471C68.4679 22.499 68.3828 22.0509 68.192 21.6445L68.078 21.4021Z" fill="black"/>
</svg>
