<svg width="160" height="160" viewBox="0 0 160 160" fill="none" xmlns="http://www.w3.org/2000/svg">
<g clip-path="url(#clip0)">
<path d="M118.103 148.695H116.072V144.606C116.072 139.891 112.25 136.069 107.536 136.069H54.8387C50.1275 136.069 46.3084 139.888 46.3084 144.599V148.266H42.1119C39.5187 148.266 37.4169 150.368 37.4169 152.961C37.4169 155.554 39.5191 157.656 42.1119 157.656H118.103C120.578 157.656 122.584 155.65 122.584 153.175C122.583 150.701 120.577 148.695 118.103 148.695Z" fill="#FFD597"/>
<path d="M122.574 153.483C122.415 155.855 120.36 157.656 117.983 157.656H108.953C111.428 157.656 113.431 155.65 113.431 153.175C113.431 151.937 112.931 150.819 112.119 150.006C111.309 149.194 110.191 148.694 108.953 148.694C107.831 148.694 106.922 147.784 106.922 146.662V144.606C106.922 139.891 103.1 136.069 98.3844 136.069H107.534C112.249 136.069 116.072 139.891 116.072 144.606V148.694H118.103C119.341 148.694 120.463 149.194 121.272 150.006C122.148 150.886 122.665 152.124 122.574 153.483V153.483Z" fill="#FCC16D"/>
<path d="M104.607 47.7625V149.694H58.5941V69.8437C58.5941 67.4906 59.6628 65.2687 61.5003 63.8L81.5503 47.7625H104.607Z" fill="#FCB44D"/>
<path d="M104.607 66.2874H104.606V47.7631H96.6297V66.2874H78.5159V74.4781C78.5159 76.9968 80.4503 79.1624 82.9659 79.2812C85.6503 79.4062 87.8659 77.2687 87.8659 74.6124V94.8593C87.8659 97.3749 89.8003 99.5406 92.3128 99.6593C92.3312 99.6603 92.35 99.6609 92.3684 99.6615C94.7309 99.7443 96.6297 101.621 96.6297 103.985V149.695H104.606V87.8034L104.607 87.8031V66.2874Z" fill="#FB9927"/>
<path d="M84.3653 34.8409C83.5931 36.665 81.3347 37.3384 79.7103 36.205C76.8341 34.1984 73.4222 30.5753 73.4222 24.6778C73.4222 15.524 81.6412 11.8496 83.3197 3.60995C83.5744 2.35995 85.1172 1.90995 85.9962 2.83433C88.6813 5.65745 92.6788 10.934 92.6788 17.3234C92.6791 25.2443 86.5356 29.715 84.3653 34.8409V34.8409Z" fill="#FCB44D"/>
<path d="M92.68 17.3234C92.68 25.2431 86.535 29.7137 84.3653 34.8399C83.5941 36.6646 81.3334 37.3387 79.7094 36.2068C76.8344 34.2003 73.4231 30.5759 73.4231 24.6787C73.4231 23.9012 73.4828 23.1612 73.5925 22.4559C75.3106 25.4187 77.9028 27.3231 79.7909 28.2999C82.6397 29.774 90.1466 17.5962 90.9931 10.0468C91.9934 12.2159 92.68 14.674 92.68 17.3234V17.3234Z" fill="#FC7D4B"/>
<path d="M103.411 42.8916H100.366C98.9878 42.8916 97.8191 43.7779 97.3909 45.0104H81.6516C79.92 45.0104 78.5162 46.4141 78.5162 48.1457V65.9804C78.5162 68.4972 80.4506 70.6632 82.9647 70.7816C85.6491 70.9082 87.865 68.7691 87.865 66.1125V86.3594C87.865 88.8763 89.7994 91.0422 92.3134 91.1607C94.9978 91.2869 97.2137 89.1482 97.2137 86.4916V75.5288C97.2137 78.1854 99.4297 80.3244 102.114 80.1979C104.628 80.0794 106.562 77.9138 106.562 75.3966V46.0441C106.563 44.3029 105.152 42.8916 103.411 42.8916V42.8916Z" fill="#FFD597"/>
<path d="M106.563 46.0437V75.3968C106.563 77.9125 104.628 80.0781 102.116 80.1968C100.678 80.2625 99.375 79.6812 98.475 78.7187C99.2875 77.8437 99.7781 76.6656 99.7781 75.3968V46.0437C99.7781 45.0031 99.2719 44.0781 98.4969 43.5062C99.0188 43.1187 99.6656 42.8906 100.366 42.8906H103.413C105.153 42.8906 106.563 44.3031 106.563 46.0437Z" fill="#FCC16D"/>
<path d="M54.5206 143.398H67.0656C67.8538 143.398 68.6131 143.695 69.1922 144.23L74.2763 148.923C74.8553 149.457 75.6147 149.754 76.4028 149.754H80.025C81.125 149.754 82.1444 149.178 82.7113 148.236L87.3278 140.563C87.895 139.621 88.9144 139.045 90.0141 139.045H97.5359C98.3675 139.045 99.165 139.375 99.7528 139.963L103.356 143.566H107.309V154.853H54.5206V143.398Z" fill="#FFD597"/>
<path d="M118.416 146.358V144.606C118.416 138.606 113.535 133.725 107.536 133.725H106.95V109.198C106.95 107.904 105.901 106.855 104.606 106.855C103.312 106.855 102.262 107.904 102.262 109.198V139.158L101.41 138.306C100.375 137.271 98.9991 136.701 97.5359 136.701H90.0144C88.1037 136.701 86.3047 137.718 85.3197 139.355L80.7037 147.027C80.5612 147.264 80.3012 147.411 80.0253 147.411H76.4031C76.2034 147.411 76.0131 147.337 75.8662 147.201L70.7825 142.508C69.7675 141.571 68.4475 141.055 67.0656 141.055H60.9378V69.8431C60.9378 68.195 61.6759 66.6594 62.9631 65.6297L76.1728 55.0647V65.9797C76.1728 69.8081 79.1078 72.9456 82.8547 73.1219C83.7778 73.165 84.6791 73.0325 85.5216 72.7369V86.3584C85.5216 90.1869 88.4569 93.3244 92.2037 93.5006C92.3181 93.5059 92.4319 93.5088 92.5459 93.5088C94.3581 93.5088 96.0653 92.8269 97.3837 91.5688C98.7653 90.2506 99.5578 88.3994 99.5578 86.4903V82.1528C100.4 82.4484 101.302 82.58 102.225 82.5378C102.237 82.5372 102.25 82.5347 102.262 82.5341V100.104C102.262 101.398 103.311 102.448 104.606 102.448C105.901 102.448 106.95 101.398 106.95 100.104V80.3569C108.164 79.07 108.907 77.3206 108.907 75.3956V46.0428C108.907 43.0125 106.441 40.5472 103.411 40.5472H100.366C98.6425 40.5472 97.0553 41.355 96.0334 42.6659H93.845C92.5503 42.6659 91.5012 43.7153 91.5012 45.0097C91.5012 46.3041 92.5503 47.3534 93.845 47.3534H95.0475V52.4675C95.0475 53.7619 96.0966 54.8112 97.3912 54.8112C98.6859 54.8112 99.735 53.7619 99.735 52.4675V45.6347C99.735 45.6066 99.7319 45.5797 99.7309 45.5519C99.8675 45.3741 100.085 45.2347 100.367 45.2347H103.411C103.857 45.2347 104.22 45.5972 104.22 46.0428V75.3956C104.22 76.6947 103.226 77.7981 102.005 77.8556C101.355 77.8853 100.746 77.6584 100.28 77.2147C99.8147 76.7703 99.5578 76.1713 99.5578 75.5278C99.5578 75.4216 99.5481 75.3178 99.5347 75.2153C99.5484 75.1128 99.5578 75.0091 99.5578 74.9028V70.9469C99.5578 69.6525 98.5087 68.6031 97.2141 68.6031C95.9194 68.6031 94.8703 69.6525 94.8703 70.9469V74.9025C94.8703 75.0088 94.88 75.1125 94.8934 75.215C94.8797 75.3175 94.8703 75.4213 94.8703 75.5275V86.4903C94.8703 87.1338 94.6137 87.7328 94.1478 88.1772C93.6828 88.6206 93.0753 88.8478 92.4237 88.8181C91.2025 88.7606 90.2087 87.6572 90.2087 86.3581V66.1113C90.2087 66.005 90.1991 65.9013 90.1856 65.7988C90.1994 65.6963 90.2087 65.5925 90.2087 65.4863V59.3688C90.2087 58.0744 89.1597 57.025 87.865 57.025C86.5703 57.025 85.5212 58.0744 85.5212 59.3688V65.4863C85.5212 65.5925 85.5309 65.6963 85.5444 65.7988C85.5306 65.9013 85.5212 66.005 85.5212 66.1113C85.5212 66.7547 85.2647 67.3538 84.7987 67.7981C84.3334 68.2419 83.7259 68.4703 83.0744 68.4394C81.8534 68.3819 80.8597 67.2784 80.8597 65.9794V48.1447C80.8597 47.7084 81.2147 47.3531 81.6509 47.3531H84.75C86.0447 47.3531 87.0937 46.3037 87.0937 45.0094C87.0937 43.715 86.0447 42.6656 84.75 42.6656H83.9431V38.5066C85.0931 37.9269 86.0103 36.9653 86.5228 35.7544C87.159 34.2519 88.2784 32.6934 89.4637 31.0431C91.9403 27.5953 95.0222 23.3041 95.0222 17.3231C95.0222 10.0156 90.4309 4.09656 87.6941 1.21905C86.685 0.157804 85.1853 -0.251258 83.7812 0.152179C82.3731 0.556554 81.3159 1.70187 81.0228 3.14156C80.3766 6.31343 78.5347 8.79468 76.585 11.4216C74.0037 14.8987 71.0781 18.84 71.0781 24.6772C71.0781 31.5894 75.0428 35.8062 78.3687 38.1269C78.6506 38.3237 78.9487 38.4878 79.2559 38.6259V43.2244C77.4337 44.1153 76.1725 45.9828 76.1725 48.1444V49.0616L60.0347 61.9681C57.6294 63.8922 56.2497 66.7619 56.2497 69.8422V133.725H54.8378C48.8416 133.725 43.9637 138.603 43.9637 144.599V145.922H42.1109C38.2297 145.922 35.0722 149.08 35.0722 152.961C35.0722 156.842 38.2303 160 42.1116 160H54.0725C55.3672 160 56.4162 158.951 56.4162 157.656C56.4162 156.362 55.3672 155.313 54.0725 155.313H42.1116C40.815 155.313 39.7603 154.258 39.7603 152.961C39.7603 151.665 40.815 150.61 42.1116 150.61H46.3081C47.6028 150.61 48.6519 149.561 48.6519 148.266V144.599C48.6519 141.188 51.4272 138.413 54.8384 138.413H56.2503V141.055H54.5206C53.2259 141.055 52.1769 142.104 52.1769 143.399C52.1769 144.693 53.2259 145.743 54.5206 145.743H67.0659C67.2656 145.743 67.4559 145.817 67.6028 145.953L72.6866 150.645C73.7016 151.582 75.0216 152.098 76.4034 152.098H80.0256C81.9359 152.098 83.7347 151.082 84.7203 149.444L89.3366 141.772C89.4787 141.536 89.7384 141.389 90.0147 141.389H97.5362C97.7478 141.389 97.9466 141.471 98.0959 141.621L101.698 145.223C102.138 145.663 102.734 145.91 103.356 145.91H107.309C108.604 145.91 109.653 144.861 109.653 143.566C109.653 142.272 108.604 141.223 107.309 141.223H106.95V138.413H107.536C110.951 138.413 113.729 141.192 113.729 144.606V148.695C113.729 149.99 114.778 151.039 116.073 151.039H118.103C119.282 151.039 120.24 151.998 120.24 153.176C120.24 154.354 119.281 155.313 118.103 155.313H63.1665C61.8719 155.313 60.8228 156.362 60.8228 157.656C60.8228 158.951 61.8719 160 63.1665 160H118.103C121.866 160 124.927 156.938 124.927 153.176C124.927 149.518 122.034 146.523 118.416 146.358V146.358ZM75.7662 24.6778C75.7662 20.3903 77.8903 17.5291 80.3494 14.2159C82.2631 11.6378 84.2347 8.98187 85.2591 5.51343C87.4859 8.10968 90.3356 12.3953 90.3356 17.3234C90.3356 21.7956 87.9575 25.1066 85.6572 28.3087C84.315 30.1772 83.0472 31.9422 82.2072 33.9269V33.9272C82.0775 34.2331 81.8275 34.3453 81.6903 34.385C81.5303 34.4306 81.2916 34.45 81.0512 34.2828C77.5444 31.8362 75.7662 28.6047 75.7662 24.6778V24.6778Z" fill="black"/>
<path d="M97.3912 66.6519C98.6859 66.6519 99.735 65.6025 99.735 64.3082V62.7825C99.735 61.4882 98.6859 60.4388 97.3912 60.4388C96.0965 60.4388 95.0475 61.4882 95.0475 62.7825V64.3082C95.0475 65.6025 96.0965 66.6519 97.3912 66.6519Z" fill="black"/>
<path d="M86.3028 96.8103C85.0081 96.8103 83.959 97.8597 83.959 99.1541V123.698C83.959 127.322 86.9072 130.27 90.5306 130.27C94.154 130.27 97.1019 127.322 97.1019 123.698C97.1019 122.404 96.0528 121.355 94.7581 121.355C93.4634 121.355 92.4144 122.404 92.4144 123.698C92.4144 124.737 91.5694 125.582 90.5306 125.582C89.4919 125.582 88.6465 124.737 88.6465 123.698V99.1541C88.6465 97.8597 87.5975 96.8103 86.3028 96.8103Z" fill="black"/>
<path d="M71.0787 80.8943V96.2043C71.0787 97.4987 72.1278 98.5481 73.4225 98.5481C74.7172 98.5481 75.7662 97.4987 75.7662 96.2043V80.8943C75.7662 79.6 74.7172 78.5506 73.4225 78.5506C72.1278 78.5506 71.0787 79.6 71.0787 80.8943Z" fill="black"/>
</g>
<defs>
<clipPath id="clip0">
<rect width="160" height="160" fill="white"/>
</clipPath>
</defs>
</svg>
