<svg id="Layer_1" enable-background="new 0 0 512 512" height="512" viewBox="0 0 512 512" width="512" xmlns="http://www.w3.org/2000/svg"><g><path d="m478.5 410.5h-445c-14.359 0-26-11.641-26-26v-300c0-14.359 11.641-26 26-26h445c14.359 0 26 11.641 26 26v300c0 14.359-11.641 26-26 26z" fill="#f3f3f3"/><path d="m478.5 58.5h-30c14.359 0 26 11.641 26 26v300c0 14.359-11.641 26-26 26h30c14.359 0 26-11.641 26-26v-300c0-14.359-11.641-26-26-26z" fill="#e4e4e4"/><path d="m504.5 122.5h-497v-38c0-14.359 11.641-26 26-26h445c14.359 0 26 11.641 26 26z" fill="#42a5f5"/><path d="m478.5 58.5h-30c14.359 0 26 11.641 26 26v38h30v-38c0-14.359-11.641-26-26-26z" fill="#2196f3"/><path d="m413.197 453.389-40.394-11.218c-.525-.146-1.081-.146-1.606 0l-40.394 11.218c-1.912.531-3.803-.906-3.803-2.889v-124h90v124c0 1.983-1.891 3.42-3.803 2.889z" fill="#ef483c"/><g><path d="m387 326.5v119.614l26.197 7.275c1.912.531 3.803-.906 3.803-2.889v-124z" fill="#de4135"/></g><path d="m465 285c0 11.525-17.684 19.45-21.839 29.472-4.308 10.389 2.429 28.46-5.4 36.289s-25.9 1.092-36.289 5.4c-10.022 4.155-17.947 21.839-29.472 21.839s-19.45-17.684-29.472-21.839c-10.389-4.308-28.46 2.429-36.289-5.4s-1.092-25.9-5.4-36.289c-4.155-10.022-21.839-17.947-21.839-29.472s17.684-19.45 21.839-29.472c4.308-10.389-2.429-28.46 5.4-36.289s25.9-1.092 36.289-5.4c10.022-4.155 17.947-21.839 29.472-21.839s19.45 17.684 29.472 21.839c10.389 4.308 28.46-2.429 36.289 5.4s1.092 25.9 5.4 36.289c4.155 10.022 21.839 17.947 21.839 29.472z" fill="#ffde5c"/><circle cx="372" cy="285" fill="#ff8724" r="41"/><path d="m419 137.5h-326c-8.284 0-15-6.716-15-15 0-8.284 6.716-15 15-15h326c8.284 0 15 6.716 15 15 0 8.284-6.716 15-15 15z" fill="#ff8724"/><g><path d="m478.5 51h-353.59c-4.142 0-7.5 3.358-7.5 7.5s3.358 7.5 7.5 7.5h353.59c10.201 0 18.5 8.299 18.5 18.5v30.5h-56.79c-3.096-8.729-11.433-15-21.21-15h-326c-9.778 0-18.114 6.27-21.21 15h-56.79v-30.5c0-10.201 8.299-18.5 18.5-18.5h58.59c4.142 0 7.5-3.358 7.5-7.5s-3.358-7.5-7.5-7.5h-58.59c-18.472 0-33.5 15.028-33.5 33.5v215.497c0 4.142 3.358 7.5 7.5 7.5s7.5-3.358 7.5-7.5v-169.998h56.79c3.096 8.729 11.432 15 21.21 15h326c9.777 0 18.114-6.27 21.21-15h56.79v254.496c0 10.201-8.299 18.5-18.5 18.5h-17.75c-4.143 0-7.5 3.358-7.5 7.5s3.357 7.5 7.5 7.5h17.75c18.472 0 33.5-15.028 33.5-33.5v-299.995c0-18.472-15.028-33.5-33.5-33.5zm-59.5 78.999h-326c-4.136 0-7.5-3.364-7.5-7.5s3.364-7.5 7.5-7.5h326c4.136 0 7.5 3.364 7.5 7.5s-3.364 7.5-7.5 7.5z"/><path d="m458.417 307.959c6.601-6.108 14.083-13.031 14.083-22.963s-7.481-16.855-14.083-22.962c-3.54-3.276-7.2-6.663-8.328-9.382-1.236-2.981-1.063-8.161-.897-13.169.294-8.81.626-18.797-6.127-25.549-6.753-6.753-16.737-6.421-25.55-6.127-5.008.167-10.188.34-13.17-.897-2.719-1.127-6.105-4.788-9.381-8.328-6.108-6.601-13.031-14.083-22.964-14.083s-16.855 7.482-22.964 14.083c-3.275 3.54-6.662 7.201-9.381 8.328-2.98 1.236-8.158 1.062-13.169.897-8.814-.296-18.797-.626-25.551 6.127-6.753 6.753-6.42 16.739-6.127 25.549.167 5.009.339 10.188-.896 13.169-1.128 2.719-4.788 6.106-8.329 9.382-6.601 6.108-14.083 13.031-14.083 22.963s7.481 16.855 14.083 22.962c3.54 3.276 7.2 6.663 8.328 9.382 1.236 2.981 1.063 8.161.897 13.169-.294 8.81-.626 18.797 6.127 25.549 5.009 5.009 11.796 6.117 18.564 6.237v40.698h-286c-10.201 0-18.5-8.299-18.5-18.5v-52.499c0-4.142-3.358-7.5-7.5-7.5s-7.5 3.358-7.5 7.5v52.499c0 18.472 15.028 33.5 33.5 33.5h286v32.5c0 3.309 1.511 6.354 4.146 8.358 2.635 2.002 5.973 2.644 9.161 1.758l39.192-10.885 39.195 10.885c.938.261 1.891.389 2.834.389 2.259 0 4.468-.735 6.326-2.147 2.635-2.003 4.146-5.049 4.146-8.358v-32.5h3.5c4.143 0 7.5-3.358 7.5-7.5s-3.357-7.5-7.5-7.5h-3.5v-40.697c6.767-.12 13.555-1.229 18.564-6.238 6.753-6.753 6.42-16.74 6.127-25.55-.167-5.009-.339-10.188.896-13.169 1.13-2.718 4.79-6.105 8.331-9.381zm-48.917 136.614-34.621-9.614c-1.884-.543-3.875-.543-5.686-.021l-34.693 9.635v-82.422c2.015.115 3.814.377 5.155.933 2.719 1.127 6.105 4.788 9.381 8.328 6.108 6.602 13.031 14.083 22.964 14.083s16.855-7.482 22.964-14.083c3.275-3.54 6.662-7.201 9.381-8.328 1.341-.556 3.14-.818 5.155-.932zm38.729-147.624c-4.726 4.372-9.611 8.893-11.997 14.646-2.48 5.98-2.253 12.809-2.033 19.414.192 5.762.41 12.293-1.742 14.445-2.151 2.151-8.684 1.935-14.443 1.742-6.605-.221-13.435-.448-19.415 2.033-5.752 2.385-10.273 7.271-14.646 11.996-4.021 4.345-8.577 9.27-11.953 9.27s-7.933-4.925-11.953-9.27c-4.372-4.725-8.894-9.611-14.646-11.997-4.263-1.768-8.956-2.16-13.692-2.16-1.909 0-3.825.064-5.723.127-5.762.19-12.292.409-14.444-1.742-2.151-2.152-1.934-8.682-1.742-14.444.22-6.604.447-13.434-2.033-19.414-2.385-5.753-7.271-10.274-11.997-14.646-4.345-4.02-9.27-8.577-9.27-11.952s4.925-7.932 9.271-11.952c4.726-4.373 9.611-8.893 11.997-14.646 2.48-5.98 2.253-12.809 2.033-19.414-.192-5.762-.41-12.293 1.742-14.444 2.15-2.152 8.685-1.935 14.443-1.742 6.604.218 13.435.447 19.415-2.033 5.752-2.385 10.273-7.271 14.646-11.996 4.021-4.345 8.577-9.27 11.953-9.27s7.933 4.925 11.953 9.27c4.372 4.725 8.894 9.611 14.646 11.997 5.981 2.481 12.811 2.252 19.415 2.033 5.763-.191 12.293-.409 14.444 1.742 2.151 2.152 1.934 8.683 1.742 14.444-.22 6.604-.447 13.434 2.033 19.414 2.385 5.753 7.271 10.274 11.997 14.646 4.345 4.02 9.27 8.577 9.27 11.952s-4.925 7.931-9.271 11.951z"/><path d="m372 236.497c-26.743 0-48.5 21.757-48.5 48.499s21.757 48.499 48.5 48.499 48.5-21.757 48.5-48.499-21.757-48.499-48.5-48.499zm0 81.999c-18.472 0-33.5-15.028-33.5-33.5s15.028-33.5 33.5-33.5 33.5 15.028 33.5 33.5c0 18.473-15.028 33.5-33.5 33.5z"/><path d="m72 211.498h116c4.142 0 7.5-3.358 7.5-7.5s-3.358-7.5-7.5-7.5h-116c-4.142 0-7.5 3.358-7.5 7.5s3.358 7.5 7.5 7.5z"/><path d="m72 261.497h146c4.142 0 7.5-3.358 7.5-7.5s-3.358-7.5-7.5-7.5h-146c-4.142 0-7.5 3.358-7.5 7.5s3.358 7.5 7.5 7.5z"/><path d="m72 292.497h146c4.142 0 7.5-3.358 7.5-7.5s-3.358-7.5-7.5-7.5h-146c-4.142 0-7.5 3.358-7.5 7.5s3.358 7.5 7.5 7.5z"/><path d="m72 323.496h73c4.142 0 7.5-3.358 7.5-7.5s-3.358-7.5-7.5-7.5h-73c-4.142 0-7.5 3.358-7.5 7.5s3.358 7.5 7.5 7.5z"/></g></g></svg>