<svg width="63" height="21" viewBox="0 0 63 21" fill="none" xmlns="http://www.w3.org/2000/svg">
<path d="M26.8097 10.7693C26.8097 13.6842 24.4959 15.8322 21.6563 15.8322C18.8166 15.8322 16.5028 13.6842 16.5028 10.7693C16.5028 7.83391 18.8166 5.70652 21.6563 5.70652C24.4959 5.70652 26.8097 7.83391 26.8097 10.7693ZM24.5538 10.7693C24.5538 8.94783 23.2127 7.70152 21.6563 7.70152C20.0998 7.70152 18.7587 8.94783 18.7587 10.7693C18.7587 12.5726 20.0998 13.8372 21.6563 13.8372C23.2127 13.8372 24.5538 12.5703 24.5538 10.7693Z" fill="#D6BCFA"/>
<path d="M37.9274 10.7693C37.9274 13.6842 35.6135 15.8322 32.7739 15.8322C29.9343 15.8322 27.6204 13.6842 27.6204 10.7693C27.6204 7.8362 29.9343 5.70652 32.7739 5.70652C35.6135 5.70652 37.9274 7.83391 37.9274 10.7693ZM35.6714 10.7693C35.6714 8.94783 34.3304 7.70152 32.7739 7.70152C31.2174 7.70152 29.8764 8.94783 29.8764 10.7693C29.8764 12.5726 31.2174 13.8372 32.7739 13.8372C34.3304 13.8372 35.6714 12.5703 35.6714 10.7693Z" fill="#D6BCFA"/>
<path d="M48.5818 6.01239V15.1017C48.5818 18.8407 46.3444 20.3677 43.6993 20.3677C41.2094 20.3677 39.7108 18.7265 39.1457 17.3843L41.1098 16.5786C41.4596 17.4026 42.3165 18.375 43.697 18.375C45.3901 18.375 46.4393 17.3455 46.4393 15.4076V14.6795H46.3606C45.8557 15.2935 44.8829 15.8299 43.6553 15.8299C41.0867 15.8299 38.7334 13.6249 38.7334 10.7876C38.7334 7.92978 41.0867 5.70652 43.6553 5.70652C44.8805 5.70652 45.8533 6.24293 46.3606 6.8387H46.4393V6.01467H48.5818V6.01239ZM46.5992 10.7876C46.5992 9.00489 45.3924 7.70152 43.8568 7.70152C42.3003 7.70152 40.9963 9.00489 40.9963 10.7876C40.9963 12.5521 42.3003 13.8372 43.8568 13.8372C45.3924 13.8372 46.5992 12.5521 46.5992 10.7876Z" fill="#D6BCFA"/>
<path d="M52.114 0.684782V15.5217H49.9136V0.684782H52.114Z" fill="#D6BCFA"/>
<path d="M60.6885 12.4356L62.4395 13.5861C61.8743 14.4101 60.5124 15.8299 58.1592 15.8299C55.2408 15.8299 53.0613 13.6066 53.0613 10.7671C53.0613 7.7563 55.2593 5.70424 57.9067 5.70424C60.5727 5.70424 61.8767 7.7951 62.3028 8.925L62.5368 9.50021L55.6693 12.3033C56.1951 13.319 57.0127 13.8372 58.1592 13.8372C59.308 13.8372 60.1048 13.2802 60.6885 12.4356ZM55.2987 10.6141L59.8894 8.73554C59.6369 8.10326 58.8772 7.66271 57.9832 7.66271C56.8367 7.66271 55.2408 8.66021 55.2987 10.6141Z" fill="#D6BCFA"/>
<path d="M8.17379 9.45228V7.30435H15.5184C15.5902 7.6787 15.6272 8.12152 15.6272 8.60087C15.6272 10.2124 15.1802 12.2051 13.7396 13.6249C12.3383 15.0629 10.5479 15.8299 8.1761 15.8299C3.78 15.8299 0.0833817 12.301 0.0833817 7.96859C0.0833817 3.6362 3.78 0.107285 8.1761 0.107285C10.6081 0.107285 12.3406 1.04772 13.6423 2.27348L12.1043 3.78913C11.1709 2.92631 9.90629 2.25522 8.17379 2.25522C4.96357 2.25522 2.45283 4.80489 2.45283 7.96859C2.45283 11.1323 4.96357 13.682 8.17379 13.682C10.256 13.682 11.4419 12.8579 12.2016 12.1092C12.8177 11.5021 13.2231 10.6347 13.3829 9.45L8.17379 9.45228Z" fill="#D6BCFA"/>
</svg>
