<svg width="160" height="160" viewBox="0 0 160 160" fill="none" xmlns="http://www.w3.org/2000/svg">
<path d="M41.5263 116.577C26.2606 104.961 16.4062 86.6 16.4062 65.9375C16.4062 30.8156 44.8781 2.34375 80 2.34375C115.122 2.34375 143.594 30.8156 143.594 65.9375C143.594 86.5687 133.769 104.905 118.543 116.524L80.1562 119.676L41.5263 116.577Z" fill="#E592D0"/>
<path d="M129.413 105.975C126.222 109.906 122.572 113.45 118.544 116.525L80.1563 119.675L41.525 116.578C26.2594 104.963 16.4062 86.6 16.4062 65.9375C16.4062 45.9906 25.5906 28.1875 39.9625 16.525C31.0969 27.4563 25.7813 41.3875 25.7813 56.5625C25.7813 75.6797 34.2156 92.8281 47.5678 104.486C49.5813 106.243 52.1119 107.3 54.7763 107.514L56.9381 107.687C78.6313 109.426 100.43 109.406 122.12 107.626L127.919 107.15C128.422 106.766 128.919 106.375 129.413 105.975V105.975Z" fill="#E172C1"/>
<path d="M42.9688 116.406H117.344C120.796 116.406 123.594 119.204 123.594 122.656V137.031L80.645 140.156L36.7188 137.031V122.656C36.7188 119.204 39.5169 116.406 42.9688 116.406V116.406Z" fill="#365F7E"/>
<path d="M33.5938 137.031H126.719C130.171 137.031 132.969 139.829 132.969 143.281V154.531C132.969 156.257 131.57 157.656 129.844 157.656H30.4688C28.7428 157.656 27.3438 156.257 27.3438 154.531V143.281C27.3438 139.829 30.1419 137.031 33.5938 137.031Z" fill="#365F7E"/>
<path d="M33.5938 154.531V144.844C33.5938 143.981 34.2934 143.281 35.1562 143.281H132.969C132.969 139.828 130.172 137.031 126.719 137.031H39.8438H33.5938C30.1419 137.031 27.3438 139.829 27.3438 143.281V154.531C27.3438 156.257 28.7428 157.656 30.4688 157.656H36.7188C34.9938 157.656 33.5938 156.256 33.5938 154.531Z" fill="#2C4D66"/>
<path d="M96.9072 23.4744L101.086 30.4834C101.31 30.8603 101.683 31.1256 102.113 31.2137L110.106 32.8566C111.279 33.0978 111.756 34.515 110.967 35.4162L105.592 41.5559C105.303 41.8862 105.166 42.3228 105.215 42.7591L106.122 50.8684C106.255 52.0587 105.055 52.9503 103.954 52.4784L96.4534 49.2641C96.05 49.0912 95.5925 49.0959 95.1928 49.2772L87.7606 52.6462C86.6697 53.1409 85.4509 52.2744 85.5594 51.0816L86.2988 42.955C86.3384 42.5178 86.1925 42.0844 85.8969 41.76L80.3959 35.7328C79.5884 34.8481 80.0359 33.4212 81.2037 33.1559L89.1609 31.3481C89.5891 31.2509 89.9562 30.9781 90.1731 30.5966L94.2056 23.5025C94.7984 22.4609 96.2938 22.4456 96.9072 23.4744V23.4744Z" fill="#F8E837"/>
<path d="M91.1375 41.3219L90.2813 51.5063L87.7625 52.6469C86.6719 53.1406 85.4531 52.275 85.5594 51.0813L86.3 42.9563C86.3406 42.5188 86.1938 42.0844 85.8969 41.7594L80.3969 35.7344C79.5906 34.8469 80.0375 33.4219 81.2063 33.1563L83.9063 32.5438L90.7219 40.0813C91.0281 40.4188 91.1781 40.8688 91.1375 41.3219V41.3219Z" fill="#F3D332"/>
<path d="M69.2947 54.2728L72.1747 59.104C72.3297 59.3637 72.5866 59.5465 72.8828 59.6075L78.3922 60.7397C79.2009 60.9059 79.5294 61.8828 78.9856 62.504L75.2809 66.7359C75.0816 66.9634 74.9872 67.2643 75.0209 67.565L75.6466 73.1543C75.7384 73.975 74.9109 74.5893 74.1519 74.264L68.9822 72.0484C68.7041 71.9293 68.3888 71.9325 68.1131 72.0575L62.9906 74.3797C62.2388 74.7206 61.3988 74.1234 61.4734 73.3012L61.9831 67.7C62.0106 67.3987 61.91 67.0997 61.7059 66.8762L57.9144 62.7218C57.3578 62.1122 57.6663 61.1284 58.4713 60.9456L63.9559 59.6993C64.2509 59.6325 64.5041 59.4443 64.6538 59.1812L67.4331 54.2915C67.8413 53.5743 68.8719 53.5637 69.2947 54.2728V54.2728Z" fill="#F8E837"/>
<path d="M65.625 66.275L65.0781 73.4344L62.9906 74.3812C62.2375 74.7219 61.4 74.125 61.475 73.3L61.9844 67.7C62.0094 67.4 61.9094 67.1 61.7062 66.875L57.9156 62.7219C57.3594 62.1125 57.6656 61.1281 58.4719 60.9469L60.8344 60.4094L65.3219 65.3781C65.5437 65.6219 65.6531 65.9469 65.625 66.275V66.275Z" fill="#F3D332"/>
<path d="M49.2188 116.406C45.7656 116.406 42.9688 119.203 42.9688 122.656V137.031H36.7188V122.656C36.7188 119.203 39.5156 116.406 42.9688 116.406H49.2188Z" fill="#2C4D66"/>
<path d="M138.869 95.6688C143.559 86.4 145.938 76.3972 145.938 65.9375C145.938 29.5794 116.358 0 80 0C66.1034 0 52.8125 4.2725 41.5631 12.3556C40.5119 13.1109 40.2722 14.5756 41.0275 15.6269C41.7828 16.6775 43.2472 16.9178 44.2984 16.1625C54.7459 8.65531 67.0909 4.6875 80 4.6875C113.773 4.6875 141.25 32.1641 141.25 65.9375C141.25 84.8869 132.735 102.376 117.861 114.079C117.268 114.03 62.7875 114.079 62.1875 114.062C60.8931 114.062 59.8438 115.112 59.8438 116.406C59.8438 117.701 60.8931 118.75 62.1875 118.75H117.344C119.498 118.75 121.25 120.502 121.25 122.656V134.688H101.562C100.268 134.688 99.2188 135.737 99.2188 137.031C99.2188 138.326 100.268 139.375 101.562 139.375H126.719C128.873 139.375 130.625 141.127 130.625 143.281V154.531C130.625 154.962 130.274 155.312 129.844 155.312H30.4688C30.0381 155.312 29.6875 154.962 29.6875 154.531V143.281C29.6875 141.127 31.4397 139.375 33.5938 139.375H90.625C91.9194 139.375 92.9688 138.326 92.9688 137.031C92.9688 135.737 91.9194 134.688 90.625 134.688H39.0625V122.656C39.0625 120.502 40.8147 118.75 42.9688 118.75H51.25C52.5444 118.75 53.5938 117.701 53.5938 116.406C53.5938 115.112 52.5444 114.062 51.25 114.062C50.8687 114.077 42.2709 114.025 42.1663 114.101C27.2741 102.398 18.75 84.9038 18.75 65.9375C18.75 49.7962 24.9747 34.5625 36.2778 23.0428C37.1844 22.1187 37.1703 20.635 36.2462 19.7284C35.3222 18.8222 33.8388 18.8362 32.9319 19.76C20.7638 32.1612 14.0625 48.5609 14.0625 65.9375C14.0625 76.4128 16.4475 86.4297 21.1512 95.7097C25.0975 103.495 30.6475 110.515 37.3156 116.192C35.5153 117.768 34.375 120.081 34.375 122.657V134.688H33.5938C28.855 134.688 25 138.543 25 143.281V154.531C25 157.547 27.4534 160 30.4688 160H129.844C132.859 160 135.312 157.547 135.312 154.531V143.281C135.312 138.543 131.457 134.688 126.719 134.688H125.938V122.656C125.938 120.008 124.732 117.636 122.843 116.058C129.452 110.395 134.953 103.409 138.869 95.6688Z" fill="black"/>
<path d="M113.494 33.1413C113.045 31.8085 111.955 30.8441 110.578 30.561L102.922 28.9878L98.9203 22.2744C97.5163 19.7291 93.5184 19.7722 92.1691 22.3447L88.3069 29.1391L80.6853 30.8706C77.8322 31.4188 76.6359 35.2344 78.6659 37.3131L83.9347 43.086L83.2263 50.8694C82.8622 53.7532 86.1341 56.0691 88.7294 54.7813L95.8478 51.5544L103.032 54.6335C105.662 55.8675 108.873 53.4832 108.452 50.6085L107.583 42.8416L112.731 36.961C113.657 35.9019 113.942 34.4741 113.494 33.1413V33.1413ZM103.828 40.0135C103.108 40.8369 102.764 41.9325 102.886 43.0197L103.644 49.796L97.3766 47.1094C96.3703 46.6785 95.2216 46.6907 94.2256 47.1422L88.0156 49.9575L88.6338 43.1669C88.7325 42.0775 88.3666 40.9891 87.6287 40.18L83.0325 35.1441L89.6819 33.6335C90.7497 33.3906 91.6719 32.7053 92.2119 31.7544L95.5812 25.8272L99.0722 31.6828C99.6322 32.6231 100.568 33.2888 101.641 33.5097L108.32 34.8825L103.828 40.0135Z" fill="black"/>
<path d="M71.3081 53.0728C71.3081 53.0725 71.3078 53.0725 71.3078 53.0722C70.0713 50.8456 66.5859 50.8897 65.3959 53.134L62.8925 57.5381L57.9528 58.6606C55.4581 59.1487 54.4147 62.4772 56.1837 64.3022L59.5988 68.0444L59.1397 73.089C58.8319 75.6131 61.6806 77.6334 63.9588 76.515L68.5728 74.4234L73.2288 76.4191C75.5341 77.49 78.3341 75.4109 77.9759 72.8947L77.4125 67.8603L80.7491 64.049C82.4803 62.1872 81.3681 58.8822 78.8641 58.4447L73.9022 57.425L71.3081 53.0728ZM73.5184 65.1912C72.8866 65.9125 72.585 66.8728 72.6919 67.8259L73.0753 71.2528L69.9047 69.894C69.0234 69.5162 68.0169 69.5272 67.1456 69.9231L64.005 71.3469L64.3175 67.9131C64.4044 66.9581 64.0834 66.0044 63.4375 65.2969L61.1131 62.75L64.4769 61.9856C65.4109 61.7731 66.2184 61.1734 66.6919 60.3403L68.3963 57.3422L70.1622 60.3047C70.6528 61.1275 71.4722 61.71 72.4116 61.9034L75.7894 62.5975L73.5184 65.1912Z" fill="black"/>
</svg>
