<svg id="Capa_1" enable-background="new 0 0 512.182 512.182" height="512" viewBox="0 0 512.182 512.182" width="512" xmlns="http://www.w3.org/2000/svg"><g><path d="m129.996 103.792-26.577 25.905c-1.179 1.149-1.716 2.804-1.438 4.426l6.275 36.569c.15.87-.27 1.63-.92 2.04-.56.35-1.3.43-1.98.07l-32.844-17.267c-1.456-.766-3.196-.766-4.653 0l-32.853 17.267c-1.46.77-3.18-.47-2.9-2.11l6.275-36.57c.278-1.622-.259-3.277-1.437-4.426l-26.568-25.905c-1.19-1.15-.54-3.17 1.1-3.41l36.728-5.332c1.629-.237 3.038-1.26 3.766-2.736l16.417-33.282c.74-1.48 2.86-1.48 3.59 0l16.426 33.283c.728 1.476 2.136 2.499 3.765 2.735l36.718 5.332c1.64.241 2.29 2.261 1.11 3.411z" fill="#fad207"/><path d="m71.976 200.037 16.422 33.275c.728 1.476 2.136 2.499 3.765 2.735l36.721 5.336c1.64.238 2.295 2.254 1.108 3.411l-26.572 25.901c-1.178 1.149-1.716 2.804-1.438 4.426l6.273 36.573c.28 1.634-1.435 2.88-2.902 2.108l-32.845-17.267c-1.457-.766-3.197-.766-4.653 0l-32.845 17.267c-1.467.771-3.182-.475-2.902-2.108l6.273-36.573c.278-1.622-.26-3.277-1.438-4.426l-26.572-25.901c-1.187-1.157-.532-3.173 1.108-3.411l36.721-5.336c1.629-.237 3.036-1.259 3.765-2.735l16.422-33.275c.736-1.487 2.855-1.487 3.589 0z" fill="#fad207"/><path d="m71.976 341.037 16.422 33.275c.728 1.476 2.136 2.499 3.765 2.735l36.721 5.336c1.64.238 2.295 2.254 1.108 3.411l-26.572 25.901c-1.178 1.149-1.716 2.804-1.438 4.426l6.273 36.573c.28 1.634-1.435 2.88-2.902 2.108l-32.845-17.267c-1.457-.766-3.197-.766-4.653 0l-32.845 17.267c-1.467.771-3.182-.475-2.902-2.108l6.273-36.573c.278-1.622-.26-3.277-1.438-4.426l-26.572-25.901c-1.187-1.157-.532-3.173 1.108-3.411l36.721-5.336c1.629-.237 3.036-1.259 3.765-2.735l16.422-33.275c.736-1.487 2.855-1.487 3.589 0z" fill="#fad207"/><g fill="#faa515"><path d="m56.617 132.747-21.611 40.056c-1.46.77-3.18-.47-2.9-2.11l6.275-36.57c.278-1.622-.259-3.277-1.437-4.426l-26.568-25.905c-1.19-1.15-.54-3.17 1.1-3.41l43.292 25.69c2.307 1.369 3.123 4.314 1.849 6.675z"/><path d="m71.976 59.032-2.93 29.04c-.23 2.27-1.96 4.1-4.22 4.44l-16.62 2.54c1.63-.24 3.04-1.26 3.76-2.74l16.42-33.28c.74-1.48 2.86-1.48 3.59 0z"/><path d="m56.617 273.747-21.611 40.056c-1.46.77-3.18-.47-2.9-2.11l6.275-36.57c.278-1.622-.259-3.277-1.437-4.426l-26.568-25.905c-1.19-1.15-.54-3.17 1.1-3.41l43.292 25.69c2.307 1.369 3.123 4.314 1.849 6.675z"/><path d="m71.976 200.032-3.84 29.21c-.28 2.19-1.97 3.93-4.15 4.28l-15.78 2.52c1.62-.23 3.03-1.25 3.76-2.73l16.42-33.28c.74-1.48 2.86-1.48 3.59 0z"/><path d="m56.617 414.747-21.611 40.056c-1.46.77-3.18-.47-2.9-2.11l6.275-36.57c.278-1.622-.259-3.277-1.437-4.426l-26.568-25.905c-1.19-1.15-.54-3.17 1.1-3.41l43.292 25.69c2.307 1.369 3.123 4.314 1.849 6.675z"/><path d="m71.976 341.032-3.84 29.21c-.28 2.19-1.97 3.93-4.15 4.28l-15.78 2.52c1.62-.23 3.03-1.25 3.76-2.73l16.42-33.28c.74-1.48 2.86-1.48 3.59 0z"/></g><path d="m494.682 81.842c5.523 0 10 4.477 10 10v46c0 5.523-4.477 10-10 10h-300c-5.523 0-10-4.477-10-10v-46c0-5.523 4.477-10 10-10z" fill="#93ddb7"/><path d="m214.686 147.842h-20c-5.53 0-10-4.48-10-10v-46c0-5.52 4.47-10 10-10h10v56c0 5.52 4.47 10 10 10z" fill="#5ed297"/><path d="m444.576 122.342h-210c-4.142 0-7.5-3.357-7.5-7.5s3.358-7.5 7.5-7.5h210c4.142 0 7.5 3.357 7.5 7.5s-3.358 7.5-7.5 7.5z" fill="#2b597f"/><path d="m194.682 288.842c-5.523 0-10-4.477-10-10v-46c0-5.523 4.477-10 10-10h220c5.523 0 10 4.477 10 10v46c0 5.523-4.477 10-10 10z" fill="#93ddb7"/><path d="m374.576 263.342h-140c-4.142 0-7.5-3.357-7.5-7.5s3.358-7.5 7.5-7.5h140c4.142 0 7.5 3.357 7.5 7.5s-3.358 7.5-7.5 7.5z" fill="#2b597f"/><path d="m314.682 363.842c5.523 0 10 4.477 10 10v46c0 5.523-4.477 10-10 10h-120c-5.523 0-10-4.477-10-10v-46c0-5.523 4.477-10 10-10z" fill="#93ddb7"/><path d="m279.682 404.342h-50c-4.142 0-7.5-3.357-7.5-7.5s3.358-7.5 7.5-7.5h50c4.142 0 7.5 3.357 7.5 7.5s-3.357 7.5-7.5 7.5z" fill="#2b597f"/><path d="m214.682 288.842h-20c-5.53 0-10-4.48-10-10v-46c0-5.52 4.47-10 10-10h10v56c0 5.52 4.47 10 10 10z" fill="#5ed297"/><path d="m214.682 429.842h-20c-5.53 0-10-4.48-10-10v-46c0-5.52 4.47-10 10-10h10v56c0 5.52 4.47 10 10 10z" fill="#5ed297"/></g><g><path d="m133.973 93.544-39.431-5.73-17.634-35.73c-2.491-5.491-10.96-5.49-13.451 0l-17.634 35.73-39.431 5.73c-5.992.672-8.608 8.727-4.156 12.793l28.532 27.812-6.736 39.272c-1.212 5.906 5.64 10.884 10.882 7.906l35.268-18.542 35.268 18.542c5.233 2.978 12.097-2 10.882-7.906l-6.735-39.272 28.532-27.812c4.453-4.066 1.836-12.12-4.156-12.793zm-37.669 32.616c-1.768 1.724-2.574 4.206-2.157 6.639l4.833 28.181-25.307-13.306c-2.186-1.148-4.795-1.148-6.98 0l-25.307 13.306 4.833-28.181c.417-2.433-.389-4.915-2.157-6.639l-20.474-19.957 28.294-4.111c2.443-.354 4.555-1.889 5.647-4.103l12.653-25.64 12.654 25.64c1.093 2.214 3.204 3.748 5.647 4.103l28.294 4.111z"/><path d="m133.973 234.544-39.431-5.73-17.634-35.73c-2.491-5.491-10.96-5.49-13.451 0l-17.634 35.73-39.431 5.73c-5.992.672-8.608 8.727-4.156 12.793l28.532 27.812-6.736 39.272c-1.212 5.906 5.64 10.884 10.882 7.906l35.268-18.542 35.268 18.542c5.233 2.978 12.097-2 10.882-7.906l-6.735-39.272 28.532-27.812c4.453-4.066 1.836-12.12-4.156-12.793zm-37.669 32.616c-1.768 1.724-2.574 4.206-2.157 6.639l4.833 28.181-25.307-13.306c-2.186-1.148-4.795-1.148-6.98 0l-25.307 13.306 4.833-28.181c.417-2.433-.389-4.915-2.157-6.639l-20.474-19.957 28.294-4.111c2.443-.354 4.555-1.889 5.647-4.103l12.653-25.64 12.654 25.64c1.093 2.214 3.204 3.748 5.647 4.103l28.294 4.111z"/><path d="m133.973 375.544-39.431-5.73-17.634-35.73c-2.491-5.491-10.96-5.49-13.451 0l-17.634 35.73-39.431 5.73c-5.992.672-8.608 8.727-4.156 12.793l28.532 27.812-6.736 39.272c-1.212 5.906 5.64 10.884 10.882 7.906l35.268-18.542 35.268 18.542c5.233 2.978 12.098-2 10.882-7.906l-6.735-39.272 28.532-27.812c4.453-4.066 1.836-12.12-4.156-12.793zm-37.669 32.616c-1.768 1.724-2.574 4.206-2.157 6.639l4.833 28.181-25.307-13.306c-2.186-1.148-4.795-1.148-6.98 0l-25.307 13.306 4.833-28.181c.417-2.433-.389-4.915-2.157-6.639l-20.474-19.957 28.294-4.111c2.443-.354 4.555-1.889 5.647-4.103l12.653-25.64 12.654 25.64c1.093 2.214 3.204 3.748 5.647 4.103l28.294 4.111z"/><path d="m494.682 74.342h-21.606c-4.142 0-7.5 3.357-7.5 7.5s3.358 7.5 7.5 7.5h21.606c1.378 0 2.5 1.121 2.5 2.5v46c0 1.379-1.122 2.5-2.5 2.5h-300c-1.378 0-2.5-1.121-2.5-2.5v-46c0-1.379 1.122-2.5 2.5-2.5h243.394c4.142 0 7.5-3.357 7.5-7.5s-3.358-7.5-7.5-7.5h-243.394c-9.649 0-17.5 7.851-17.5 17.5v46c0 9.649 7.851 17.5 17.5 17.5h300c9.649 0 17.5-7.851 17.5-17.5v-46c0-9.649-7.85-17.5-17.5-17.5z"/><path d="m234.576 107.342c-4.142 0-7.5 3.357-7.5 7.5s3.358 7.5 7.5 7.5h210c4.142 0 7.5-3.357 7.5-7.5s-3.358-7.5-7.5-7.5z"/><path d="m414.682 215.342h-220c-9.649 0-17.5 7.851-17.5 17.5v46c0 9.649 7.851 17.5 17.5 17.5h169.394c4.142 0 7.5-3.357 7.5-7.5s-3.358-7.5-7.5-7.5h-169.394c-1.378 0-2.5-1.121-2.5-2.5v-46c0-1.379 1.122-2.5 2.5-2.5h220c1.378 0 2.5 1.121 2.5 2.5v46c0 1.379-1.122 2.5-2.5 2.5h-15.606c-4.142 0-7.5 3.357-7.5 7.5s3.358 7.5 7.5 7.5h15.606c9.649 0 17.5-7.851 17.5-17.5v-46c0-9.649-7.85-17.5-17.5-17.5z"/><path d="m374.576 248.342h-140c-4.142 0-7.5 3.357-7.5 7.5s3.358 7.5 7.5 7.5h140c4.142 0 7.5-3.357 7.5-7.5s-3.358-7.5-7.5-7.5z"/><path d="m314.682 356.342h-69.606c-4.142 0-7.5 3.357-7.5 7.5s3.358 7.5 7.5 7.5h69.606c1.378 0 2.5 1.121 2.5 2.5v46c0 1.379-1.122 2.5-2.5 2.5h-120c-1.378 0-2.5-1.121-2.5-2.5v-46c0-1.379 1.122-2.5 2.5-2.5h15.394c4.142 0 7.5-3.357 7.5-7.5s-3.358-7.5-7.5-7.5h-15.394c-9.649 0-17.5 7.851-17.5 17.5v46c0 9.649 7.851 17.5 17.5 17.5h120c9.649 0 17.5-7.851 17.5-17.5v-46c0-9.649-7.85-17.5-17.5-17.5z"/><path d="m279.682 404.342c4.142 0 7.5-3.357 7.5-7.5s-3.358-7.5-7.5-7.5h-50c-4.142 0-7.5 3.357-7.5 7.5s3.358 7.5 7.5 7.5z"/></g></svg>