<svg id="Capa_1" enable-background="new 0 0 512 512" height="512" viewBox="0 0 512 512" width="512" xmlns="http://www.w3.org/2000/svg"><g><g><path clip-rule="evenodd" d="m70.295 18.286v270.087h46.725l282.863-236.171v-33.916c0-5.941-4.874-10.786-10.816-10.786h-307.956c-5.941 0-10.816 4.845-10.816 10.786z" fill="#c6d0da" fill-rule="evenodd"/></g><g><path clip-rule="evenodd" d="m126.279 52.202c-5.105 0-9.259 4.153-9.259 9.229v226.942l157.915 24.139 145.31-85.511v-165.57c0-5.076-4.153-9.229-9.259-9.229h-11.104z" fill="#faf8f9" fill-rule="evenodd"/></g><g><path clip-rule="evenodd" d="m210.645 105.008c-11.335 13.036-25.468 18.861-43.437 20.419-2.048.173-3.144-.173-3.259 2.134-2.336 45.365 18.459 71.379 46.87 90.067.606.404.433.404 1.038 0 28.41-18.66 49.206-44.702 46.898-90.067-.144-2.307-1.24-1.961-3.288-2.134-17.969-1.557-32.073-7.383-43.409-20.419-.865-.98-.577-.98-1.413 0z" fill="#ccf49f" fill-rule="evenodd"/></g><g><path clip-rule="evenodd" d="m247.65 288.373h-130.629-46.726-4.153c-11.624 0-21.142 9.517-21.142 21.14v145.21c0 11.623 9.518 21.14 21.142 21.14h201.237 157.367 21.113c11.624 0 21.142-9.517 21.142-21.14v-201.621c0-14.362-11.768-26.129-26.132-26.129l-20.623.029-20.363.029-91.893.144c-7.961.029-14.998 1.586-19.498 15.228l-9.778 29.532c-2.423 15.775-13.931 16.438-31.064 16.438z" fill="#ffe07d" fill-rule="evenodd"/></g><g><path clip-rule="evenodd" d="m277.445 375.066c-6.028 3.634-10.066 10.238-10.066 17.737v83.059 7.931c0 11.392 9.316 20.707 20.709 20.707h115.948c11.393 0 20.709-9.315 20.709-20.707v-7.931-83.059c0-11.363-9.316-20.707-20.709-20.707h-4.153-4.903-97.835-9.057c-3.894-.001-7.528 1.095-10.643 2.97zm50.417 57.19c0-10.065 8.134-18.227 18.2-18.227s18.2 8.162 18.2 18.227c0 10.036-8.134 18.198-18.2 18.198s-18.2-8.162-18.2-18.198z" fill="#c6d0da" fill-rule="evenodd"/></g><g><path clip-rule="evenodd" d="m346.062 414.029c-10.066 0-18.2 8.162-18.2 18.227 0 10.036 8.134 18.198 18.2 18.198s18.2-8.162 18.2-18.198c0-10.065-8.134-18.227-18.2-18.227z" fill="#685d68" fill-rule="evenodd"/></g><g><path clip-rule="evenodd" d="m399.883 52.202-54.455-.029c32.852 50.701 43.783 115.562 35.275 174.886l19.181-.029 20.363-.029v-165.57c0-5.076-4.153-9.229-9.259-9.229z" fill="#e5e1e5" fill-rule="evenodd"/></g><g><path clip-rule="evenodd" d="m399.883 227.03-14.681.029c5.451.029 10.499 1.759 14.681 4.643 1.817 1.269 3.461 2.74 4.903 4.413 3.98 4.586 6.403 10.555 6.403 17.073v111.726 8.479c7.903 2.913 13.556 10.527 13.556 19.409v83.059h21.113c11.624 0 21.142-9.517 21.142-21.14v-201.619c0-14.362-11.768-26.129-26.132-26.129l-20.623.029z" fill="#ffc250" fill-rule="evenodd"/></g><g><path clip-rule="evenodd" d="m398.96 392.803v83.059 7.931c0 11.392-9.316 20.707-20.709 20.707h25.785c11.393 0 20.709-9.315 20.709-20.707v-7.931-83.059c0-8.883-5.653-16.496-13.556-19.409-2.25-.836-4.644-1.298-7.153-1.298h-4.153-4.903-16.729c3.894 0 7.528 1.096 10.643 2.971 6.028 3.633 10.066 10.237 10.066 17.736z" fill="#a0aab7" fill-rule="evenodd"/></g><g><path clip-rule="evenodd" d="m222.614 114.583c.577 4.96.865 10.007.865 15.141 0 29.388-9.835 56.44-26.305 77.753 2.769 2.365 5.682 4.586 8.682 6.749 1.615 1.154 3.288 2.278 4.961 3.403.606.404.433.404 1.038 0 15.719-10.325 29.102-22.899 37.525-39.77 6.836-13.612 10.383-30.022 9.374-50.297-.144-2.307-1.24-1.961-3.288-2.134-12.777-1.097-23.593-4.385-32.852-10.845z" fill="#95d6a4" fill-rule="evenodd"/></g><g><path d="m256.692 117.989c-.184-.009-.382-.018-.578-.034-17.099-1.482-28.94-6.993-38.434-17.911l-.172-.204c-1.71-2.057-3.841-3.089-6.236-3.067-2.427.022-4.503 1.089-6.173 3.172l-.152.187c-9.448 10.845-21.29 16.342-38.37 17.822-.213.019-.411.027-.595.036-8.201.412-9.393 6.568-9.524 9.186-2.164 42.018 13.8 72.751 50.27 96.741 1.44 1.004 3.019 1.506 4.602 1.506 1.59 0 3.185-.508 4.645-1.525 36.436-23.93 52.411-54.662 50.267-96.805-.165-2.602-1.422-8.695-9.55-9.104zm-45.354 90.929c-28.084-19.671-40.594-43.509-40.058-76.371 16.58-1.974 29.531-7.604 40.07-17.47 10.541 9.868 23.487 15.5 40.068 17.473.518 32.867-11.991 56.706-40.08 76.368z"/><path d="m371.213 97.45h-64.954c-4.143 0-7.5 3.357-7.5 7.5s3.357 7.5 7.5 7.5h64.954c4.143 0 7.5-3.357 7.5-7.5s-3.358-7.5-7.5-7.5z"/><path d="m371.213 133.847h-64.954c-4.143 0-7.5 3.357-7.5 7.5s3.357 7.5 7.5 7.5h64.954c4.143 0 7.5-3.357 7.5-7.5s-3.358-7.5-7.5-7.5z"/><path d="m371.213 170.242h-64.954c-4.143 0-7.5 3.357-7.5 7.5s3.357 7.5 7.5 7.5h64.954c4.143 0 7.5-3.357 7.5-7.5s-3.358-7.5-7.5-7.5z"/><path d="m440.856 219.473-13.11.02v-158.062c0-9.224-7.518-16.729-16.759-16.729h-3.604v-26.416c0-10.083-8.217-18.286-18.317-18.286h-307.955c-10.1 0-18.316 8.203-18.316 18.286v262.789c-14.221 1.663-25.295 13.778-25.295 28.438v145.209c0 15.793 12.849 28.641 28.642 28.641h61.464c4.142 0 7.5-3.357 7.5-7.5s-3.358-7.5-7.5-7.5h-61.464c-7.522 0-13.642-6.119-13.642-13.641v-145.209c0-7.521 6.12-13.64 13.642-13.64h181.508c15.432 0 34.602-.001 38.372-22.148l9.592-28.973c3.313-10.045 7.126-10.059 12.388-10.077l132.867-.202c10.273 0 18.632 8.356 18.632 18.629v201.62c0 7.521-6.119 13.641-13.642 13.641h-13.613v-75.56c0-15.554-12.654-28.207-28.209-28.207h-1.557v-19.726c0-19.163-15.579-34.754-34.728-34.754h-43.352c-19.164 0-34.756 15.591-34.756 34.754v19.726h-1.557c-15.555 0-28.209 12.653-28.209 28.207v75.56h-93.133c-4.142 0-7.5 3.357-7.5 7.5s3.358 7.5 7.5 7.5h93.133v.431c0 15.554 12.654 28.207 28.209 28.207h115.948c15.555 0 28.209-12.653 28.209-28.207v-.431h13.613c15.793 0 28.642-12.848 28.642-28.641v-201.62c.001-18.543-15.086-33.629-33.643-33.629zm-132.893.202c-9.838.035-20.691 2.483-26.592 20.37l-9.777 29.532c-.132.397-.229.806-.293 1.219-1.316 8.57-4.853 10.077-23.651 10.077h-123.129v-219.442c0-.937.805-1.729 1.759-1.729h75.481c4.142 0 7.5-3.357 7.5-7.5s-3.358-7.5-7.5-7.5h-75.481c-9.241 0-16.759 7.505-16.759 16.729v219.442h-31.726v-262.587c0-1.781 1.519-3.286 3.316-3.286h307.955c1.798 0 3.316 1.505 3.316 3.286v26.416h-155.375c-4.142 0-7.5 3.357-7.5 7.5s3.358 7.5 7.5 7.5h173.98c.953 0 1.759.792 1.759 1.729v158.085zm-3.318 125.195c0-10.893 8.862-19.754 19.756-19.754h43.352c10.878 0 19.728 8.861 19.728 19.754v19.726h-82.835v-19.726zm112.6 138.923c0 7.282-5.926 13.207-13.209 13.207h-115.948c-7.283 0-13.209-5.925-13.209-13.207v-90.99c0-7.282 5.926-13.207 13.209-13.207h115.948c7.283 0 13.209 5.925 13.209 13.207z"/><path d="m346.062 406.529c-14.171 0-25.699 11.541-25.699 25.727 0 11.562 7.676 21.362 18.199 24.579v15.797c0 4.143 3.357 7.5 7.5 7.5s7.5-3.357 7.5-7.5v-15.797c10.523-3.217 18.2-13.017 18.2-24.579 0-14.186-11.53-25.727-25.7-25.727zm0 36.425c-5.899 0-10.699-4.799-10.699-10.698 0-5.915 4.8-10.727 10.699-10.727 5.9 0 10.7 4.812 10.7 10.727 0 5.899-4.8 10.698-10.7 10.698z"/></g></g></svg>