<svg width="160" height="160" viewBox="0 0 160 160" fill="none" xmlns="http://www.w3.org/2000/svg">
<path d="M91.3108 45.9043V141.154C91.3108 147.59 86.092 152.809 79.6523 152.809H14.0328C7.59623 152.809 2.37749 147.59 2.37749 141.154V45.9043C2.37749 39.4646 7.59623 34.249 14.0328 34.249H79.6523C86.092 34.249 91.3108 39.4646 91.3108 45.9043Z" fill="#CF8BFC"/>
<path d="M91.3108 45.9043V132.409H68.9324C62.4958 132.409 57.2771 127.194 57.2771 120.754V34.249H79.6524C86.092 34.249 91.3108 39.4646 91.3108 45.9043Z" fill="#9966CC"/>
<path d="M66.1517 112.834C63.5296 115.459 60.5049 117.437 57.2771 118.766C47.3815 122.853 35.5771 120.874 27.5365 112.834C16.8737 102.171 16.8737 84.8842 27.5365 74.2214C33.7224 68.0386 42.1343 65.4386 50.1877 66.428C46.7699 67.2461 43.5293 68.9867 40.8596 71.6533C33.1677 79.3486 33.1677 91.8186 40.8596 99.5108C45.343 103.994 51.4433 105.865 57.2771 105.123C61.4593 104.597 65.5049 102.726 68.7167 99.5108C71.3864 96.8442 73.127 93.6008 73.942 90.1826C74.9311 98.2389 72.3345 106.651 66.1517 112.834Z" fill="#F9D366"/>
<path d="M66.1518 112.834C63.5296 115.459 60.5049 117.437 57.2771 118.766V105.122C61.4593 104.596 65.5049 102.725 68.7167 99.5101C71.3864 96.8436 73.127 93.6001 73.942 90.182C74.9311 98.2389 72.3346 106.651 66.1518 112.834Z" fill="#DD8833"/>
<path d="M80.3458 7.19092H145.965C152.403 7.19092 157.622 12.4093 157.622 18.8471V114.096C157.622 120.534 152.403 125.753 145.965 125.753H80.3458C73.908 125.753 68.6896 120.534 68.6896 114.096V18.8468C68.6896 12.4097 73.9083 7.19092 80.3458 7.19092Z" fill="#F9D366"/>
<path d="M94.4876 66.4718L85.1533 50.3046H103.822L113.156 34.1375L122.49 50.3046H141.158L131.824 66.4718L141.158 82.6389H122.49L113.156 98.8058L103.822 82.6389H85.1533L94.4876 66.4718Z" fill="#CF8BFC"/>
<path d="M145.966 4.81312H134.777C133.463 4.81312 132.398 5.8778 132.398 7.19124C132.398 8.50467 133.463 9.56936 134.777 9.56936H145.966C151.082 9.56936 155.244 13.7315 155.244 18.8475V114.097C155.244 119.213 151.082 123.375 145.966 123.375H80.3461C75.2298 123.375 71.0677 119.213 71.0677 114.097V18.8472C71.0677 13.7312 75.2298 9.56905 80.3461 9.56905H126.85C128.163 9.56905 129.228 8.50436 129.228 7.19093C129.228 5.87749 128.163 4.81281 126.85 4.81281H80.3461C72.6074 4.81281 66.3117 11.1084 66.3117 18.8472V114.096C66.3117 121.835 72.6074 128.131 80.3461 128.131H145.966C153.704 128.131 160 121.835 160 114.096V18.8472C160 11.1087 153.704 4.81312 145.966 4.81312Z" fill="black"/>
<path d="M2.37812 110.934C3.69156 110.934 4.75624 109.869 4.75624 108.555V45.9037C4.75624 40.7874 8.91842 36.6256 14.0343 36.6256H60.9652C62.2783 36.6256 63.3433 35.5609 63.3433 34.2474C63.3433 32.934 62.2786 31.8693 60.9652 31.8693H14.0343C6.29561 31.8693 0 38.1649 0 45.9037V108.556C0 109.869 1.06469 110.934 2.37812 110.934Z" fill="black"/>
<path d="M91.3101 131.09C89.9967 131.09 88.932 132.155 88.932 133.468V141.153C88.932 146.269 84.7698 150.431 79.6539 150.431H14.0343C8.91811 150.431 4.75624 146.268 4.75624 141.153V116.483C4.75624 115.169 3.69156 114.105 2.37812 114.105C1.06469 114.105 0 115.169 0 116.483V141.153C0 148.892 6.29561 155.187 14.0343 155.187H79.6539C87.3926 155.187 93.6883 148.892 93.6883 141.153V133.468C93.6883 132.155 92.6236 131.09 91.3101 131.09Z" fill="black"/>
<path d="M143.218 49.1155C142.793 48.3799 142.008 47.9264 141.158 47.9264H123.863L115.215 32.9483C114.79 32.2124 114.005 31.7593 113.156 31.7593C112.306 31.7593 111.521 32.2124 111.096 32.9483L102.449 47.9264H85.1536C84.3039 47.9264 83.5192 48.3799 83.0942 49.1155C82.6692 49.8511 82.6692 50.758 83.0942 51.4936L91.7417 66.4717L83.0942 81.4498C82.6692 82.1854 82.6692 83.0923 83.0942 83.8279C83.5192 84.5636 84.3039 85.017 85.1536 85.017H102.449L111.096 99.9951C111.521 100.731 112.306 101.184 113.156 101.184C114.005 101.184 114.79 100.731 115.215 99.9951L123.863 85.017H141.158C142.008 85.017 142.793 84.5636 143.218 83.8279C143.643 83.0923 143.643 82.1854 143.218 81.4498L134.57 66.4717L143.218 51.4936C143.642 50.758 143.642 49.8511 143.218 49.1155ZM113.156 38.8933L118.371 47.9264H107.94L113.156 38.8933ZM121.117 52.6824L129.078 66.4714L121.117 80.2604H105.194L97.2329 66.4714L105.194 52.6824H121.117ZM89.272 52.6824H99.7029L94.4876 61.7155L89.272 52.6824ZM89.272 80.2607L94.4873 71.2276L99.7026 80.2607H89.272ZM113.156 94.0501L107.94 85.017H118.371L113.156 94.0501ZM137.039 80.2607H126.609L131.824 71.2276L137.039 80.2607ZM131.824 61.7158L126.609 52.6827H137.04L131.824 61.7158Z" fill="black"/>
<path d="M90.1686 16.0581C88.8551 16.0581 87.7905 17.1228 87.7905 18.4362V21.7653H84.4614C83.1483 21.7653 82.0833 22.83 82.0833 24.1434C82.0833 25.4568 83.148 26.5215 84.4614 26.5215H87.7905V29.8506C87.7905 31.164 88.8551 32.2287 90.1686 32.2287C91.482 32.2287 92.5467 31.164 92.5467 29.8506V26.5212H95.8758C97.1892 26.5212 98.2539 25.4565 98.2539 24.1431C98.2539 22.8297 97.1892 21.765 95.8758 21.765H92.5467V18.4359C92.5464 17.1228 91.4817 16.0581 90.1686 16.0581Z" fill="black"/>
<path d="M136.143 116.885C137.456 116.885 138.521 115.82 138.521 114.507V111.178H141.85C143.163 111.178 144.228 110.113 144.228 108.8C144.228 107.486 143.163 106.422 141.85 106.422H138.521V103.093C138.521 101.779 137.456 100.714 136.143 100.714C134.829 100.714 133.765 101.779 133.765 103.093V106.422H130.436C129.122 106.422 128.058 107.486 128.058 108.8C128.058 110.113 129.122 111.178 130.436 111.178H133.765V114.507C133.765 115.82 134.829 116.885 136.143 116.885Z" fill="black"/>
<path d="M23.8568 43.1143C22.5434 43.1143 21.4787 44.179 21.4787 45.4924V48.8215H18.1497C16.8362 48.8215 15.7715 49.8862 15.7715 51.1996C15.7715 52.5131 16.8362 53.5777 18.1497 53.5777H21.4787V56.9068C21.4787 58.2199 22.5434 59.2849 23.8568 59.2849C25.1703 59.2849 26.235 58.2202 26.235 56.9068V53.5777H29.564C30.8775 53.5777 31.9421 52.5131 31.9421 51.1996C31.9421 49.8865 30.8775 48.8215 29.564 48.8215H26.235V45.4924C26.235 44.1793 25.1703 43.1143 23.8568 43.1143Z" fill="black"/>
<path d="M69.8311 127.772C68.518 127.772 67.453 128.836 67.453 130.15V133.479H64.1239C62.8108 133.479 61.7458 134.543 61.7458 135.857C61.7458 137.17 62.8105 138.235 64.1239 138.235H67.453V141.564C67.453 142.878 68.5177 143.942 69.8311 143.942C71.1445 143.942 72.2092 142.878 72.2092 141.564V138.235H75.5383C76.8517 138.235 77.9164 137.17 77.9164 135.857C77.9164 134.544 76.8517 133.479 75.5383 133.479H72.2092V130.15C72.2092 128.836 71.1445 127.772 69.8311 127.772Z" fill="black"/>
<path d="M61.3083 101.635C54.8418 104.257 47.4762 102.764 42.5421 97.8301C35.789 91.077 35.789 80.0889 42.5421 73.3355C44.8062 71.0714 47.6415 69.4827 50.7421 68.7411C51.8612 68.4736 52.628 67.443 52.5634 66.2942C52.4984 65.1455 51.6209 64.208 50.4787 64.0677C41.3365 62.9461 32.3612 66.0336 25.8562 72.5386C20.25 78.1448 17.1625 85.5986 17.1625 93.527C17.1625 101.455 20.25 108.909 25.8562 114.515C31.5762 120.235 39.2106 123.19 46.8927 123.19C52.5434 123.19 58.2205 121.591 63.1786 118.317C64.2749 117.594 64.5765 116.118 63.8527 115.023C63.129 113.926 61.6536 113.625 60.558 114.348C50.7355 120.834 37.5556 119.489 29.219 111.153C19.5003 101.434 19.5003 85.6204 29.219 75.9014C32.1359 72.9845 35.6431 70.8861 39.4487 69.707C39.3581 69.7945 39.2684 69.8827 39.1793 69.9717C30.5718 78.5792 30.5718 92.5845 39.1793 101.192C45.4671 107.48 54.8549 109.383 63.0955 106.041C64.3127 105.548 64.899 104.161 64.4055 102.944C63.9121 101.728 62.5249 101.141 61.3083 101.635Z" fill="black"/>
</svg>
