<svg width="122" height="30" viewBox="0 0 122 30" fill="none" xmlns="http://www.w3.org/2000/svg">
<g clip-path="url(#clip0)">
<path d="M115.124 14.846H116.956V11.5285H119.385V14.846H121.579V16.6653H119.385V22.5728C119.385 22.8296 119.396 23.051 119.417 23.2363C119.439 23.4219 119.488 23.5787 119.567 23.7071C119.644 23.8357 119.761 23.9318 119.918 23.9961C120.074 24.0604 120.287 24.0925 120.557 24.0925C120.728 24.0925 120.897 24.0891 121.068 24.0817C121.239 24.0747 121.409 24.0496 121.579 24.0069V25.8904C121.31 25.9188 121.047 25.9472 120.791 25.9759C120.536 26.0044 120.273 26.0189 120.003 26.0189C119.364 26.0189 118.849 25.958 118.458 25.8369C118.067 25.7158 117.762 25.5372 117.542 25.3018C117.322 25.0663 117.173 24.7705 117.095 24.4135C117.017 24.0571 116.97 23.6503 116.956 23.1936V16.6653H115.124V14.846ZM108.861 24.2851C109.401 24.2851 109.87 24.171 110.267 23.9426C110.665 23.7146 110.991 23.4149 111.248 23.0437C111.503 22.6728 111.691 22.2554 111.811 21.7916C111.933 21.328 111.993 20.8535 111.993 20.3682C111.993 19.8972 111.933 19.4263 111.811 18.9555C111.691 18.4847 111.503 18.0673 111.248 17.7034C110.991 17.3396 110.665 17.0436 110.267 16.8151C109.87 16.587 109.401 16.4727 108.861 16.4727C108.321 16.4727 107.853 16.587 107.455 16.8151C107.058 17.0436 106.731 17.3396 106.475 17.7034C106.22 18.0673 106.031 18.4847 105.911 18.9555C105.79 19.4263 105.73 19.8972 105.73 20.3682C105.73 20.8535 105.79 21.328 105.911 21.7916C106.031 22.2554 106.22 22.6728 106.475 23.0437C106.731 23.4149 107.058 23.7146 107.455 23.9426C107.853 24.171 108.321 24.2851 108.861 24.2851ZM108.861 26.2114C107.981 26.2114 107.196 26.065 106.507 25.7727C105.818 25.4804 105.236 25.0771 104.76 24.5634C104.284 24.0496 103.922 23.4363 103.674 22.7227C103.425 22.0093 103.301 21.2243 103.301 20.3682C103.301 19.5264 103.425 18.7489 103.674 18.0352C103.922 17.3219 104.284 16.7081 104.76 16.1944C105.236 15.6808 105.818 15.2778 106.507 14.9851C107.196 14.6929 107.981 14.5464 108.861 14.5464C109.742 14.5464 110.527 14.6929 111.216 14.9851C111.904 15.2778 112.486 15.6808 112.962 16.1944C113.438 16.7081 113.8 17.3219 114.049 18.0352C114.297 18.7489 114.421 19.5264 114.421 20.3682C114.421 21.2243 114.297 22.0093 114.049 22.7227C113.8 23.4363 113.438 24.0496 112.962 24.5634C112.486 25.0771 111.904 25.4804 111.216 25.7727C110.527 26.065 109.742 26.2114 108.861 26.2114ZM98.9977 10.6295H101.426V25.9118H98.9977V10.6295ZM94.3987 14.846H96.8273V25.9118H94.3987V14.846ZM94.3987 10.6295H96.8273V12.9411H94.3987V10.6295ZM90.1166 20.3896C90.1166 19.8903 90.0528 19.405 89.9249 18.9341C89.7971 18.4632 89.6053 18.0459 89.3497 17.682C89.0941 17.3181 88.7745 17.0259 88.391 16.8044C88.0076 16.5833 87.5673 16.4727 87.0702 16.4727C86.0476 16.4727 85.2771 16.8295 84.7588 17.5428C84.2402 18.2566 83.9811 19.2053 83.9811 20.3896C83.9811 20.9461 84.0483 21.4634 84.1835 21.9414C84.3183 22.4195 84.5208 22.8296 84.7907 23.1721C85.0603 23.5145 85.3835 23.7858 85.76 23.9855C86.1362 24.1855 86.5729 24.2851 87.0702 24.2851C87.6242 24.2851 88.0928 24.171 88.4762 23.9426C88.8597 23.7146 89.1756 23.4183 89.4243 23.0545C89.6726 22.6905 89.8504 22.2768 89.9568 21.8129C90.0634 21.3493 90.1166 20.8749 90.1166 20.3896ZM81.6377 14.846H83.9385V16.3442H83.9811C84.322 15.7022 84.7977 15.2421 85.4084 14.9638C86.019 14.6855 86.6794 14.5464 87.3898 14.5464C88.256 14.5464 89.0122 14.6999 89.6587 15.0066C90.3047 15.3136 90.841 15.7343 91.2671 16.2694C91.6931 16.8044 92.0126 17.4288 92.2258 18.1421C92.4387 18.8558 92.5453 19.619 92.5453 20.4324C92.5453 21.1745 92.4494 21.8952 92.2578 22.5941C92.066 23.2935 91.7747 23.9105 91.3842 24.4457C90.9934 24.9807 90.5001 25.4089 89.9036 25.7299C89.3071 26.0509 88.6041 26.2114 87.7946 26.2114C87.4393 26.2114 87.0842 26.1793 86.7294 26.1151C86.3741 26.0509 86.0334 25.9472 85.7068 25.8048C85.3799 25.6623 85.0783 25.4804 84.8013 25.259C84.5244 25.0378 84.2935 24.7773 84.109 24.4778H84.0664V30H81.6377V14.846ZM73.4785 14.846H75.3106V11.5285H77.7393V14.846H79.9336V16.6653H77.7393V22.5728C77.7393 22.8296 77.75 23.051 77.7713 23.2363C77.7925 23.4219 77.8421 23.5787 77.9204 23.7071C77.9982 23.8357 78.1154 23.9318 78.2719 23.9961C78.428 24.0604 78.6411 24.0925 78.9109 24.0925C79.0815 24.0925 79.2519 24.0891 79.4223 24.0817C79.5928 24.0747 79.7632 24.0496 79.9336 24.0069V25.8904C79.6636 25.9188 79.4011 25.9472 79.1453 25.9759C78.8897 26.0044 78.6267 26.0189 78.3571 26.0189C77.718 26.0189 77.203 25.958 76.8125 25.8369C76.4218 25.7158 76.1165 25.5372 75.8965 25.3018C75.6762 25.0663 75.527 24.7705 75.4491 24.4135C75.371 24.0571 75.3246 23.6503 75.3106 23.1936V16.6653H73.4785V14.846ZM65.4684 22.3588C65.5392 23.0724 65.8092 23.5718 66.2779 23.857C66.7465 24.1426 67.3075 24.2851 67.9609 24.2851C68.1879 24.2851 68.4473 24.2674 68.7385 24.2316C69.0294 24.1961 69.3031 24.1283 69.5587 24.0283C69.8142 23.9286 70.0237 23.7821 70.1872 23.5895C70.3503 23.3969 70.4248 23.1436 70.4109 22.8296C70.3965 22.516 70.283 22.2591 70.07 22.0591C69.857 21.8595 69.5833 21.6988 69.2498 21.5774C68.9158 21.4565 68.5361 21.3527 68.11 21.2672C67.684 21.1816 67.2506 21.0889 66.8105 20.9889C66.3558 20.8893 65.9191 20.7678 65.5002 20.625C65.0812 20.4826 64.7048 20.29 64.3712 20.0471C64.0373 19.8046 63.771 19.4943 63.5723 19.116C63.3733 18.7381 63.274 18.2706 63.274 17.714C63.274 17.1148 63.4194 16.6118 63.7107 16.2051C64.0017 15.7986 64.3712 15.4705 64.8186 15.2206C65.2661 14.9711 65.7629 14.7962 66.3098 14.6962C66.8564 14.5965 67.3783 14.5464 67.8756 14.5464C68.4436 14.5464 68.9868 14.6073 69.5055 14.7283C70.0237 14.8497 70.4924 15.046 70.9114 15.3169C71.3302 15.5882 71.6785 15.9413 71.9554 16.3763C72.2324 16.8117 72.4061 17.3361 72.4773 17.9495H69.9422C69.8283 17.3646 69.562 16.9723 69.1433 16.7724C68.7242 16.5726 68.2448 16.4727 67.7052 16.4727C67.5348 16.4727 67.3324 16.487 67.0981 16.5154C66.8637 16.5442 66.6435 16.5978 66.4377 16.676C66.2317 16.7546 66.0576 16.8687 65.9157 17.0184C65.7736 17.1683 65.7027 17.3646 65.7027 17.6071C65.7027 17.9067 65.8056 18.1494 66.0116 18.3348C66.2174 18.5204 66.4872 18.6739 66.8212 18.795C67.1546 18.9164 67.5348 19.0197 67.9609 19.1053C68.387 19.191 68.827 19.2839 69.2818 19.3837C69.7217 19.4836 70.1552 19.605 70.5813 19.7475C71.0074 19.8903 71.3872 20.0829 71.7211 20.3253C72.0545 20.5681 72.3246 20.8749 72.5306 21.2457C72.7362 21.617 72.8395 22.0734 72.8395 22.6156C72.8395 23.2721 72.6903 23.8286 72.3921 24.2851C72.0939 24.742 71.7067 25.1129 71.231 25.3981C70.755 25.6837 70.226 25.8904 69.6439 26.0189C69.0614 26.1472 68.4861 26.2114 67.9183 26.2114C67.2223 26.2114 66.5795 26.133 65.9904 25.9759C65.4008 25.8191 64.8895 25.5801 64.4565 25.259C64.023 24.938 63.6822 24.5386 63.4338 24.0604C63.1852 23.5824 63.0537 23.0152 63.0396 22.3588H65.4684ZM61.3355 25.9118H58.9496V24.3707H58.907C58.6087 24.9272 58.1646 25.3734 57.5755 25.7084C56.986 26.0436 56.3858 26.2114 55.7753 26.2114C54.3266 26.2114 53.2791 25.8512 52.6329 25.1306C51.9866 24.4102 51.6637 23.3219 51.6637 21.8664V14.846H54.0923V21.631C54.0923 22.6016 54.2767 23.2865 54.6462 23.6858C55.0153 24.0854 55.5336 24.2851 56.2014 24.2851C56.7127 24.2851 57.1387 24.2068 57.4796 24.0496C57.8205 23.8928 58.0975 23.6824 58.3104 23.4183C58.5235 23.1544 58.6759 22.837 58.7684 22.4658C58.8606 22.0949 58.907 21.6952 58.907 21.2672V14.846H61.3355V25.9118ZM43.7357 14.846H46.0151V16.9863H46.0578C46.1287 16.6866 46.2671 16.3944 46.4732 16.1089C46.6789 15.8236 46.9276 15.5631 47.2189 15.3277C47.5097 15.0922 47.833 14.9032 48.1882 14.7604C48.543 14.618 48.9051 14.5464 49.2747 14.5464C49.5586 14.5464 49.754 14.5537 49.8605 14.5678C49.9671 14.5822 50.0769 14.5965 50.1908 14.6106V16.965C50.0203 16.9365 49.8463 16.9115 49.6688 16.89C49.491 16.8687 49.3173 16.858 49.1468 16.858C48.7347 16.858 48.3479 16.9403 47.9858 17.1041C47.6237 17.2684 47.3074 17.5108 47.0378 17.8318C46.7678 18.1529 46.5547 18.5488 46.3987 19.0197C46.2422 19.4906 46.1643 20.0331 46.1643 20.6464V25.9118H43.7357V14.846ZM31.9549 10.6295H44.2685V12.9411H39.4325V25.9118H36.7696V12.9411H31.9549V10.6295Z" fill="#D6BCFA"/>
<path d="M29.1193 10.6295L17.9961 10.6276L14.5597 -0.000215292L11.1236 10.6264L0 10.6245L8.99951 17.1956L5.56271 27.8244L14.5609 21.2563L23.5566 27.8244L20.1206 17.198L29.1193 10.6295Z" fill="#D6BCFA"/>
<path d="M20.8996 19.6071L20.1206 17.198L14.5609 21.2563L20.8996 19.6071Z" fill="#B794F4"/>
</g>
<defs>
<clipPath id="clip0">
<rect width="121.579" height="30" fill="white"/>
</clipPath>
</defs>
</svg>
